<?xml version="1.0" encoding="utf-8" standalone="no"?>
<!DOCTYPE svg PUBLIC "-//W3C//DTD SVG 1.1//EN"
  "http://www.w3.org/Graphics/SVG/1.1/DTD/svg11.dtd">
<svg xmlns:xlink="http://www.w3.org/1999/xlink" width="546.215625pt" height="397.826pt" viewBox="0 0 546.215625 397.826" xmlns="http://www.w3.org/2000/svg" version="1.1">
 <metadata>
  <rdf:RDF xmlns:dc="http://purl.org/dc/elements/1.1/" xmlns:cc="http://creativecommons.org/ns#" xmlns:rdf="http://www.w3.org/1999/02/22-rdf-syntax-ns#">
   <cc:Work>
    <dc:type rdf:resource="http://purl.org/dc/dcmitype/StillImage"/>
    <dc:date>2026-07-02T17:08:13.940269</dc:date>
    <dc:format>image/svg+xml</dc:format>
    <dc:creator>
     <cc:Agent>
      <dc:title>Matplotlib v3.10.9, https://matplotlib.org/</dc:title>
     </cc:Agent>
    </dc:creator>
   </cc:Work>
  </rdf:RDF>
 </metadata>
 <defs>
  <style type="text/css">*{stroke-linejoin: round; stroke-linecap: butt}</style>
 </defs>
 <g id="figure_1">
  <g id="patch_1">
   <path d="M 0 397.826 
L 546.215625 397.826 
L 546.215625 0 
L 0 0 
z
" style="fill: #fcfcfd"/>
  </g>
  <g id="axes_1">
   <g id="patch_2">
    <path d="M 59.135625 358.092 
L 539.015625 358.092 
L 539.015625 66.708 
L 59.135625 66.708 
z
" style="fill: #ffffff"/>
   </g>
   <g id="matplotlib.axis_1">
    <g id="xtick_1">
     <g id="text_1">
      <!-- Normal -->
      <g style="fill: #262626" transform="translate(99.199304 375.735437) scale(0.11 -0.11)">
       <defs>
        <path id="SegoeUI-4e" d="M 4200 0 
L 3556 0 
L 1250 3572 
Q 1163 3706 1106 3853 
L 1088 3853 
Q 1113 3709 1113 3238 
L 1113 0 
L 588 0 
L 588 4481 
L 1269 4481 
L 3513 966 
Q 3653 747 3694 666 
L 3706 666 
Q 3675 859 3675 1325 
L 3675 4481 
L 4200 4481 
L 4200 0 
z
" transform="scale(0.015625)"/>
        <path id="SegoeUI-6f" d="M 1856 -75 
Q 1147 -75 723 373 
Q 300 822 300 1563 
Q 300 2369 740 2822 
Q 1181 3275 1931 3275 
Q 2647 3275 3048 2834 
Q 3450 2394 3450 1613 
Q 3450 847 3017 386 
Q 2584 -75 1856 -75 
z
M 1894 2844 
Q 1400 2844 1112 2508 
Q 825 2172 825 1581 
Q 825 1013 1115 684 
Q 1406 356 1894 356 
Q 2391 356 2658 678 
Q 2925 1000 2925 1594 
Q 2925 2194 2658 2519 
Q 2391 2844 1894 2844 
z
" transform="scale(0.015625)"/>
        <path id="SegoeUI-72" d="M 2188 2681 
Q 2053 2784 1800 2784 
Q 1472 2784 1251 2475 
Q 1031 2166 1031 1631 
L 1031 0 
L 519 0 
L 519 3200 
L 1031 3200 
L 1031 2541 
L 1044 2541 
Q 1153 2878 1378 3067 
Q 1603 3256 1881 3256 
Q 2081 3256 2188 3213 
L 2188 2681 
z
" transform="scale(0.015625)"/>
        <path id="SegoeUI-6d" d="M 5063 0 
L 4550 0 
L 4550 1838 
Q 4550 2369 4386 2606 
Q 4222 2844 3834 2844 
Q 3506 2844 3276 2544 
Q 3047 2244 3047 1825 
L 3047 0 
L 2534 0 
L 2534 1900 
Q 2534 2844 1806 2844 
Q 1469 2844 1250 2561 
Q 1031 2278 1031 1825 
L 1031 0 
L 519 0 
L 519 3200 
L 1031 3200 
L 1031 2694 
L 1044 2694 
Q 1384 3275 2038 3275 
Q 2366 3275 2609 3092 
Q 2853 2909 2944 2613 
Q 3300 3275 4006 3275 
Q 5063 3275 5063 1972 
L 5063 0 
z
" transform="scale(0.015625)"/>
        <path id="SegoeUI-61" d="M 2809 0 
L 2297 0 
L 2297 500 
L 2284 500 
Q 1950 -75 1300 -75 
Q 822 -75 551 178 
Q 281 431 281 850 
Q 281 1747 1338 1894 
L 2297 2028 
Q 2297 2844 1638 2844 
Q 1059 2844 594 2450 
L 594 2975 
Q 1066 3275 1681 3275 
Q 2809 3275 2809 2081 
L 2809 0 
z
M 2297 1619 
L 1525 1513 
Q 1169 1463 987 1336 
Q 806 1209 806 888 
Q 806 653 973 504 
Q 1141 356 1419 356 
Q 1800 356 2048 623 
Q 2297 891 2297 1300 
L 2297 1619 
z
" transform="scale(0.015625)"/>
        <path id="SegoeUI-6c" d="M 1031 0 
L 519 0 
L 519 4738 
L 1031 4738 
L 1031 0 
z
" transform="scale(0.015625)"/>
       </defs>
       <use xlink:href="#SegoeUI-4e"/>
       <use xlink:href="#SegoeUI-6f" transform="translate(74.804688 0)"/>
       <use xlink:href="#SegoeUI-72" transform="translate(133.398438 0)"/>
       <use xlink:href="#SegoeUI-6d" transform="translate(167.914062 0)"/>
       <use xlink:href="#SegoeUI-61" transform="translate(254.046875 0)"/>
       <use xlink:href="#SegoeUI-6c" transform="translate(304.925781 0)"/>
      </g>
      <!-- (&lt;10 ppm) -->
      <g style="fill: #262626" transform="translate(91.580085 388.037562) scale(0.11 -0.11)">
       <defs>
        <path id="SegoeUI-28" d="M 1863 -1019 
L 1406 -1019 
Q 438 88 438 1709 
Q 438 3338 1406 4481 
L 1869 4481 
Q 888 3294 888 1716 
Q 888 150 1863 -1019 
z
" transform="scale(0.015625)"/>
        <path id="SegoeUI-3c" d="M 3538 397 
L 850 1747 
L 850 1931 
L 3538 3438 
L 3538 2969 
L 1531 1856 
L 1531 1844 
L 3538 863 
L 3538 397 
z
" transform="scale(0.015625)"/>
        <path id="SegoeUI-31" d="M 2263 0 
L 1750 0 
L 1750 3872 
Q 1691 3813 1577 3736 
Q 1463 3659 1320 3584 
Q 1178 3509 1020 3443 
Q 863 3378 713 3341 
L 713 3859 
Q 881 3906 1070 3986 
Q 1259 4066 1442 4164 
Q 1625 4263 1787 4370 
Q 1950 4478 2069 4581 
L 2263 4581 
L 2263 0 
z
" transform="scale(0.015625)"/>
        <path id="SegoeUI-30" d="M 3188 2259 
Q 3188 1697 3086 1262 
Q 2984 828 2792 529 
Q 2600 231 2320 76 
Q 2041 -78 1684 -78 
Q 1347 -78 1083 70 
Q 819 219 637 503 
Q 456 788 362 1202 
Q 269 1616 269 2150 
Q 269 2738 367 3188 
Q 466 3638 656 3942 
Q 847 4247 1130 4401 
Q 1413 4556 1778 4556 
Q 3188 4556 3188 2259 
z
M 2663 2209 
Q 2663 4122 1753 4122 
Q 794 4122 794 2175 
Q 794 359 1734 359 
Q 2663 359 2663 2209 
z
" transform="scale(0.015625)"/>
        <path id="SegoeUI-20" transform="scale(0.015625)"/>
        <path id="SegoeUI-70" d="M 1044 463 
L 1031 463 
L 1031 -1472 
L 519 -1472 
L 519 3200 
L 1031 3200 
L 1031 2638 
L 1044 2638 
Q 1422 3275 2150 3275 
Q 2769 3275 3116 2845 
Q 3463 2416 3463 1694 
Q 3463 891 3072 408 
Q 2681 -75 2003 -75 
Q 1381 -75 1044 463 
z
M 1031 1753 
L 1031 1306 
Q 1031 909 1289 632 
Q 1547 356 1944 356 
Q 2409 356 2673 712 
Q 2938 1069 2938 1703 
Q 2938 2238 2691 2541 
Q 2444 2844 2022 2844 
Q 1575 2844 1303 2533 
Q 1031 2222 1031 1753 
z
" transform="scale(0.015625)"/>
        <path id="SegoeUI-29" d="M 531 -1019 
L 75 -1019 
Q 1050 150 1050 1716 
Q 1050 3294 69 4481 
L 531 4481 
Q 1506 3338 1506 1709 
Q 1506 88 531 -1019 
z
" transform="scale(0.015625)"/>
       </defs>
       <use xlink:href="#SegoeUI-28"/>
       <use xlink:href="#SegoeUI-3c" transform="translate(30.175781 0)"/>
       <use xlink:href="#SegoeUI-31" transform="translate(98.583984 0)"/>
       <use xlink:href="#SegoeUI-30" transform="translate(152.490234 0)"/>
       <use xlink:href="#SegoeUI-20" transform="translate(206.396484 0)"/>
       <use xlink:href="#SegoeUI-70" transform="translate(233.789062 0)"/>
       <use xlink:href="#SegoeUI-70" transform="translate(292.578125 0)"/>
       <use xlink:href="#SegoeUI-6d" transform="translate(351.367188 0)"/>
       <use xlink:href="#SegoeUI-29" transform="translate(437.5 0)"/>
      </g>
     </g>
    </g>
    <g id="xtick_2">
     <g id="text_2">
      <!-- Modere -->
      <g style="fill: #262626" transform="translate(189.199652 375.735437) scale(0.11 -0.11)">
       <defs>
        <path id="SegoeUI-4d" d="M 5156 0 
L 4634 0 
L 4634 3006 
Q 4634 3363 4678 3878 
L 4666 3878 
Q 4591 3575 4531 3444 
L 3000 0 
L 2744 0 
L 1216 3419 
Q 1150 3569 1081 3878 
L 1069 3878 
Q 1094 3609 1094 3000 
L 1094 0 
L 588 0 
L 588 4481 
L 1281 4481 
L 2656 1356 
Q 2816 997 2863 819 
L 2881 819 
Q 3016 1188 3097 1369 
L 4500 4481 
L 5156 4481 
L 5156 0 
z
" transform="scale(0.015625)"/>
        <path id="SegoeUI-64" d="M 3250 0 
L 2738 0 
L 2738 544 
L 2725 544 
Q 2369 -75 1625 -75 
Q 1022 -75 661 354 
Q 300 784 300 1525 
Q 300 2319 700 2797 
Q 1100 3275 1766 3275 
Q 2425 3275 2725 2756 
L 2738 2756 
L 2738 4738 
L 3250 4738 
L 3250 0 
z
M 2738 1447 
L 2738 1919 
Q 2738 2306 2481 2575 
Q 2225 2844 1831 2844 
Q 1363 2844 1094 2500 
Q 825 2156 825 1550 
Q 825 997 1083 676 
Q 1341 356 1775 356 
Q 2203 356 2470 665 
Q 2738 975 2738 1447 
z
" transform="scale(0.015625)"/>
        <path id="SegoeUI-65" d="M 3091 1472 
L 831 1472 
Q 844 938 1119 647 
Q 1394 356 1875 356 
Q 2416 356 2869 713 
L 2869 231 
Q 2447 -75 1753 -75 
Q 1075 -75 687 361 
Q 300 797 300 1588 
Q 300 2334 723 2804 
Q 1147 3275 1775 3275 
Q 2403 3275 2747 2869 
Q 3091 2463 3091 1741 
L 3091 1472 
z
M 2566 1906 
Q 2563 2350 2352 2597 
Q 2141 2844 1766 2844 
Q 1403 2844 1150 2584 
Q 897 2325 838 1906 
L 2566 1906 
z
" transform="scale(0.015625)"/>
       </defs>
       <use xlink:href="#SegoeUI-4d"/>
       <use xlink:href="#SegoeUI-6f" transform="translate(89.794922 0)"/>
       <use xlink:href="#SegoeUI-64" transform="translate(148.388672 0)"/>
       <use xlink:href="#SegoeUI-65" transform="translate(207.275391 0)"/>
       <use xlink:href="#SegoeUI-72" transform="translate(259.570312 0)"/>
       <use xlink:href="#SegoeUI-65" transform="translate(292.960938 0)"/>
      </g>
      <!-- (10-20 ppm) -->
      <g style="fill: #262626" transform="translate(178.099964 388.037562) scale(0.11 -0.11)">
       <defs>
        <path id="SegoeUI-2d" d="M 2156 1581 
L 450 1581 
L 450 1984 
L 2156 1984 
L 2156 1581 
z
" transform="scale(0.015625)"/>
        <path id="SegoeUI-32" d="M 2413 3306 
Q 2413 3513 2348 3666 
Q 2284 3819 2173 3920 
Q 2063 4022 1913 4072 
Q 1763 4122 1588 4122 
Q 1438 4122 1294 4081 
Q 1150 4041 1014 3969 
Q 878 3897 751 3797 
Q 625 3697 516 3575 
L 516 4125 
Q 731 4334 998 4445 
Q 1266 4556 1650 4556 
Q 1925 4556 2159 4476 
Q 2394 4397 2566 4244 
Q 2738 4091 2836 3866 
Q 2934 3641 2934 3350 
Q 2934 3084 2873 2868 
Q 2813 2653 2689 2462 
Q 2566 2272 2378 2097 
Q 2191 1922 1938 1741 
Q 1622 1516 1417 1356 
Q 1213 1197 1092 1058 
Q 972 919 923 780 
Q 875 641 875 459 
L 3106 459 
L 3106 0 
L 341 0 
L 341 222 
Q 341 509 403 728 
Q 466 947 609 1144 
Q 753 1341 986 1537 
Q 1219 1734 1556 1981 
Q 1800 2156 1964 2315 
Q 2128 2475 2228 2634 
Q 2328 2794 2370 2958 
Q 2413 3122 2413 3306 
z
" transform="scale(0.015625)"/>
       </defs>
       <use xlink:href="#SegoeUI-28"/>
       <use xlink:href="#SegoeUI-31" transform="translate(30.175781 0)"/>
       <use xlink:href="#SegoeUI-30" transform="translate(84.082031 0)"/>
       <use xlink:href="#SegoeUI-2d" transform="translate(137.988281 0)"/>
       <use xlink:href="#SegoeUI-32" transform="translate(177.978516 0)"/>
       <use xlink:href="#SegoeUI-30" transform="translate(231.884766 0)"/>
       <use xlink:href="#SegoeUI-20" transform="translate(285.791016 0)"/>
       <use xlink:href="#SegoeUI-70" transform="translate(313.183594 0)"/>
       <use xlink:href="#SegoeUI-70" transform="translate(371.972656 0)"/>
       <use xlink:href="#SegoeUI-6d" transform="translate(430.761719 0)"/>
       <use xlink:href="#SegoeUI-29" transform="translate(516.894531 0)"/>
      </g>
     </g>
    </g>
    <g id="xtick_3">
     <g id="text_3">
      <!-- Dangereux -->
      <g style="fill: #262626" transform="translate(272.842344 375.677) scale(0.11 -0.11)">
       <defs>
        <path id="SegoeUI-44" d="M 588 0 
L 588 4481 
L 1825 4481 
Q 4194 4481 4194 2297 
Q 4194 1259 3536 629 
Q 2878 0 1775 0 
L 588 0 
z
M 1113 4006 
L 1113 475 
L 1781 475 
Q 2663 475 3153 947 
Q 3644 1419 3644 2284 
Q 3644 4006 1813 4006 
L 1113 4006 
z
" transform="scale(0.015625)"/>
        <path id="SegoeUI-6e" d="M 3175 0 
L 2663 0 
L 2663 1825 
Q 2663 2844 1919 2844 
Q 1534 2844 1282 2555 
Q 1031 2266 1031 1825 
L 1031 0 
L 519 0 
L 519 3200 
L 1031 3200 
L 1031 2669 
L 1044 2669 
Q 1406 3275 2094 3275 
Q 2619 3275 2897 2936 
Q 3175 2597 3175 1956 
L 3175 0 
z
" transform="scale(0.015625)"/>
        <path id="SegoeUI-67" d="M 3250 256 
Q 3250 -1506 1563 -1506 
Q 969 -1506 525 -1281 
L 525 -769 
Q 1066 -1069 1556 -1069 
Q 2738 -1069 2738 188 
L 2738 538 
L 2725 538 
Q 2359 -75 1625 -75 
Q 1028 -75 664 351 
Q 300 778 300 1497 
Q 300 2313 692 2794 
Q 1084 3275 1766 3275 
Q 2413 3275 2725 2756 
L 2738 2756 
L 2738 3200 
L 3250 3200 
L 3250 256 
z
M 2738 1447 
L 2738 1919 
Q 2738 2300 2480 2572 
Q 2222 2844 1838 2844 
Q 1363 2844 1094 2498 
Q 825 2153 825 1531 
Q 825 997 1083 676 
Q 1341 356 1766 356 
Q 2197 356 2467 662 
Q 2738 969 2738 1447 
z
" transform="scale(0.015625)"/>
        <path id="SegoeUI-75" d="M 3106 0 
L 2594 0 
L 2594 506 
L 2581 506 
Q 2263 -75 1594 -75 
Q 450 -75 450 1288 
L 450 3200 
L 959 3200 
L 959 1369 
Q 959 356 1734 356 
Q 2109 356 2351 632 
Q 2594 909 2594 1356 
L 2594 3200 
L 3106 3200 
L 3106 0 
z
" transform="scale(0.015625)"/>
        <path id="SegoeUI-78" d="M 2856 3200 
L 1781 1581 
L 2838 0 
L 2241 0 
L 1613 1038 
Q 1553 1134 1472 1281 
L 1459 1281 
Q 1444 1253 1313 1038 
L 672 0 
L 81 0 
L 1172 1569 
L 128 3200 
L 725 3200 
L 1344 2106 
Q 1413 1984 1478 1856 
L 1491 1856 
L 2291 3200 
L 2856 3200 
z
" transform="scale(0.015625)"/>
       </defs>
       <use xlink:href="#SegoeUI-44"/>
       <use xlink:href="#SegoeUI-61" transform="translate(70.117188 0)"/>
       <use xlink:href="#SegoeUI-6e" transform="translate(120.996094 0)"/>
       <use xlink:href="#SegoeUI-67" transform="translate(177.587891 0)"/>
       <use xlink:href="#SegoeUI-65" transform="translate(236.474609 0)"/>
       <use xlink:href="#SegoeUI-72" transform="translate(288.769531 0)"/>
       <use xlink:href="#SegoeUI-65" transform="translate(322.160156 0)"/>
       <use xlink:href="#SegoeUI-75" transform="translate(374.455078 0)"/>
       <use xlink:href="#SegoeUI-78" transform="translate(431.046875 0)"/>
      </g>
      <!-- (&gt;=20 ppm) -->
      <g style="fill: #262626" transform="translate(269.590469 388.037562) scale(0.11 -0.11)">
       <defs>
        <path id="SegoeUI-3e" d="M 3538 1747 
L 850 397 
L 850 863 
L 2863 1838 
L 2863 1856 
L 850 2969 
L 850 3438 
L 3538 1931 
L 3538 1747 
z
" transform="scale(0.015625)"/>
        <path id="SegoeUI-3d" d="M 3663 2325 
L 725 2325 
L 725 2738 
L 3663 2738 
L 3663 2325 
z
M 3663 994 
L 725 994 
L 725 1406 
L 3663 1406 
L 3663 994 
z
" transform="scale(0.015625)"/>
       </defs>
       <use xlink:href="#SegoeUI-28"/>
       <use xlink:href="#SegoeUI-3e" transform="translate(30.175781 0)"/>
       <use xlink:href="#SegoeUI-3d" transform="translate(98.583984 0)"/>
       <use xlink:href="#SegoeUI-32" transform="translate(166.992188 0)"/>
       <use xlink:href="#SegoeUI-30" transform="translate(220.898438 0)"/>
       <use xlink:href="#SegoeUI-20" transform="translate(274.804688 0)"/>
       <use xlink:href="#SegoeUI-70" transform="translate(302.197266 0)"/>
       <use xlink:href="#SegoeUI-70" transform="translate(360.986328 0)"/>
       <use xlink:href="#SegoeUI-6d" transform="translate(419.775391 0)"/>
       <use xlink:href="#SegoeUI-29" transform="translate(505.908203 0)"/>
      </g>
     </g>
    </g>
    <g id="xtick_4">
     <g id="text_4">
      <!-- Macro -->
      <g style="fill: #262626" transform="translate(374.625582 375.735437) scale(0.11 -0.11)">
       <defs>
        <path id="SegoeUI-63" d="M 2700 147 
Q 2331 -75 1825 -75 
Q 1141 -75 720 370 
Q 300 816 300 1525 
Q 300 2316 753 2795 
Q 1206 3275 1963 3275 
Q 2384 3275 2706 3119 
L 2706 2594 
Q 2350 2844 1944 2844 
Q 1453 2844 1139 2492 
Q 825 2141 825 1569 
Q 825 1006 1120 681 
Q 1416 356 1913 356 
Q 2331 356 2700 634 
L 2700 147 
z
" transform="scale(0.015625)"/>
       </defs>
       <use xlink:href="#SegoeUI-4d"/>
       <use xlink:href="#SegoeUI-61" transform="translate(89.794922 0)"/>
       <use xlink:href="#SegoeUI-63" transform="translate(140.673828 0)"/>
       <use xlink:href="#SegoeUI-72" transform="translate(186.865234 0)"/>
       <use xlink:href="#SegoeUI-6f" transform="translate(220.255859 0)"/>
      </g>
      <!-- (moyenne) -->
      <g style="fill: #262626" transform="translate(364.070739 388.037562) scale(0.11 -0.11)">
       <defs>
        <path id="SegoeUI-79" d="M 3066 3200 
L 1594 -513 
Q 1200 -1506 488 -1506 
Q 288 -1506 153 -1466 
L 153 -1006 
Q 319 -1063 456 -1063 
Q 844 -1063 1038 -600 
L 1294 6 
L 44 3200 
L 613 3200 
L 1478 738 
Q 1494 691 1544 494 
L 1563 494 
Q 1578 569 1625 731 
L 2534 3200 
L 3066 3200 
z
" transform="scale(0.015625)"/>
       </defs>
       <use xlink:href="#SegoeUI-28"/>
       <use xlink:href="#SegoeUI-6d" transform="translate(30.175781 0)"/>
       <use xlink:href="#SegoeUI-6f" transform="translate(116.308594 0)"/>
       <use xlink:href="#SegoeUI-79" transform="translate(174.902344 0)"/>
       <use xlink:href="#SegoeUI-65" transform="translate(222.791016 0)"/>
       <use xlink:href="#SegoeUI-6e" transform="translate(275.085938 0)"/>
       <use xlink:href="#SegoeUI-6e" transform="translate(331.677734 0)"/>
       <use xlink:href="#SegoeUI-65" transform="translate(388.269531 0)"/>
       <use xlink:href="#SegoeUI-29" transform="translate(440.564453 0)"/>
      </g>
     </g>
    </g>
    <g id="xtick_5">
     <g id="text_5">
      <!-- Pondere -->
      <g style="fill: #262626" transform="translate(460.811165 375.735437) scale(0.11 -0.11)">
       <defs>
        <path id="SegoeUI-50" d="M 1113 1694 
L 1113 0 
L 588 0 
L 588 4481 
L 1819 4481 
Q 2538 4481 2933 4131 
Q 3328 3781 3328 3144 
Q 3328 2506 2889 2100 
Q 2450 1694 1703 1694 
L 1113 1694 
z
M 1113 4006 
L 1113 2169 
L 1663 2169 
Q 2206 2169 2492 2417 
Q 2778 2666 2778 3119 
Q 2778 4006 1728 4006 
L 1113 4006 
z
" transform="scale(0.015625)"/>
       </defs>
       <use xlink:href="#SegoeUI-50"/>
       <use xlink:href="#SegoeUI-6f" transform="translate(52.255859 0)"/>
       <use xlink:href="#SegoeUI-6e" transform="translate(110.849609 0)"/>
       <use xlink:href="#SegoeUI-64" transform="translate(167.441406 0)"/>
       <use xlink:href="#SegoeUI-65" transform="translate(226.328125 0)"/>
       <use xlink:href="#SegoeUI-72" transform="translate(278.623047 0)"/>
       <use xlink:href="#SegoeUI-65" transform="translate(312.013672 0)"/>
      </g>
      <!-- (global) -->
      <g style="fill: #262626" transform="translate(462.447415 388.037562) scale(0.11 -0.11)">
       <defs>
        <path id="SegoeUI-62" d="M 1044 463 
L 1031 463 
L 1031 0 
L 519 0 
L 519 4738 
L 1031 4738 
L 1031 2638 
L 1044 2638 
Q 1422 3275 2150 3275 
Q 2766 3275 3114 2845 
Q 3463 2416 3463 1694 
Q 3463 891 3072 408 
Q 2681 -75 2003 -75 
Q 1369 -75 1044 463 
z
M 1031 1753 
L 1031 1306 
Q 1031 909 1289 632 
Q 1547 356 1944 356 
Q 2409 356 2673 712 
Q 2938 1069 2938 1703 
Q 2938 2238 2691 2541 
Q 2444 2844 2022 2844 
Q 1575 2844 1303 2533 
Q 1031 2222 1031 1753 
z
" transform="scale(0.015625)"/>
       </defs>
       <use xlink:href="#SegoeUI-28"/>
       <use xlink:href="#SegoeUI-67" transform="translate(30.175781 0)"/>
       <use xlink:href="#SegoeUI-6c" transform="translate(89.0625 0)"/>
       <use xlink:href="#SegoeUI-6f" transform="translate(113.28125 0)"/>
       <use xlink:href="#SegoeUI-62" transform="translate(171.875 0)"/>
       <use xlink:href="#SegoeUI-61" transform="translate(229.289062 0)"/>
       <use xlink:href="#SegoeUI-6c" transform="translate(280.167969 0)"/>
       <use xlink:href="#SegoeUI-29" transform="translate(304.386719 0)"/>
      </g>
     </g>
    </g>
   </g>
   <g id="matplotlib.axis_2">
    <g id="ytick_1">
     <g id="line2d_1">
      <path d="M 59.135625 358.092 
L 539.015625 358.092 
" clip-path="url(#p1250421862)" style="fill: none; stroke: #e6e8f0; stroke-width: 0.8; stroke-linecap: round"/>
     </g>
     <g id="text_6">
      <!-- 0% -->
      <g style="fill: #262626" transform="translate(34.703125 362.163719) scale(0.11 -0.11)">
       <defs>
        <path id="SegoeUI-25" d="M 1263 2234 
Q 800 2234 525 2539 
Q 250 2844 250 3353 
Q 250 3909 540 4229 
Q 831 4550 1325 4550 
Q 1803 4550 2067 4253 
Q 2331 3956 2331 3419 
Q 2331 2881 2036 2557 
Q 1741 2234 1263 2234 
z
M 1306 4206 
Q 1009 4206 837 3986 
Q 666 3766 666 3381 
Q 666 3003 834 2792 
Q 1003 2581 1294 2581 
Q 1588 2581 1753 2800 
Q 1919 3019 1919 3406 
Q 1919 3784 1755 3995 
Q 1591 4206 1306 4206 
z
M 4263 4481 
L 1388 -31 
L 941 -31 
L 3813 4481 
L 4263 4481 
z
M 3931 -69 
Q 3469 -69 3194 237 
Q 2919 544 2919 1050 
Q 2919 1606 3212 1929 
Q 3506 2253 3994 2253 
Q 4469 2253 4734 1953 
Q 5000 1653 5000 1113 
Q 5000 578 4704 254 
Q 4409 -69 3931 -69 
z
M 3975 1900 
Q 3675 1900 3504 1681 
Q 3334 1463 3334 1075 
Q 3334 703 3503 492 
Q 3672 281 3963 281 
Q 4256 281 4422 501 
Q 4588 722 4588 1106 
Q 4588 1488 4423 1694 
Q 4259 1900 3975 1900 
z
" transform="scale(0.015625)"/>
       </defs>
       <use xlink:href="#SegoeUI-30"/>
       <use xlink:href="#SegoeUI-25" transform="translate(53.90625 0)"/>
      </g>
     </g>
    </g>
    <g id="ytick_2">
     <g id="line2d_2">
      <path d="M 59.135625 304.132 
L 539.015625 304.132 
" clip-path="url(#p1250421862)" style="fill: none; stroke: #e6e8f0; stroke-width: 0.8; stroke-linecap: round"/>
     </g>
     <g id="text_7">
      <!-- 20% -->
      <g style="fill: #262626" transform="translate(28.773438 308.203719) scale(0.11 -0.11)">
       <use xlink:href="#SegoeUI-32"/>
       <use xlink:href="#SegoeUI-30" transform="translate(53.90625 0)"/>
       <use xlink:href="#SegoeUI-25" transform="translate(107.8125 0)"/>
      </g>
     </g>
    </g>
    <g id="ytick_3">
     <g id="line2d_3">
      <path d="M 59.135625 250.172 
L 539.015625 250.172 
" clip-path="url(#p1250421862)" style="fill: none; stroke: #e6e8f0; stroke-width: 0.8; stroke-linecap: round"/>
     </g>
     <g id="text_8">
      <!-- 40% -->
      <g style="fill: #262626" transform="translate(28.773438 254.243719) scale(0.11 -0.11)">
       <defs>
        <path id="SegoeUI-34" d="M 2656 4481 
L 2656 1522 
L 3231 1522 
L 3231 1053 
L 2656 1053 
L 2656 0 
L 2150 0 
L 2150 1053 
L 44 1053 
L 44 1497 
Q 338 1828 638 2204 
Q 938 2581 1211 2968 
Q 1484 3356 1717 3742 
Q 1950 4128 2109 4481 
L 2656 4481 
z
M 622 1522 
L 2150 1522 
L 2150 3716 
Q 1916 3306 1706 2984 
Q 1497 2663 1308 2400 
Q 1119 2138 947 1925 
Q 775 1713 622 1522 
z
" transform="scale(0.015625)"/>
       </defs>
       <use xlink:href="#SegoeUI-34"/>
       <use xlink:href="#SegoeUI-30" transform="translate(53.90625 0)"/>
       <use xlink:href="#SegoeUI-25" transform="translate(107.8125 0)"/>
      </g>
     </g>
    </g>
    <g id="ytick_4">
     <g id="line2d_4">
      <path d="M 59.135625 196.212 
L 539.015625 196.212 
" clip-path="url(#p1250421862)" style="fill: none; stroke: #e6e8f0; stroke-width: 0.8; stroke-linecap: round"/>
     </g>
     <g id="text_9">
      <!-- 60% -->
      <g style="fill: #262626" transform="translate(28.773438 200.283719) scale(0.11 -0.11)">
       <defs>
        <path id="SegoeUI-36" d="M 3194 1422 
Q 3194 1094 3087 819 
Q 2981 544 2793 344 
Q 2606 144 2347 33 
Q 2088 -78 1784 -78 
Q 1447 -78 1180 62 
Q 913 203 727 467 
Q 541 731 444 1112 
Q 347 1494 347 1972 
Q 347 2556 476 3032 
Q 606 3509 845 3848 
Q 1084 4188 1421 4372 
Q 1759 4556 2175 4556 
Q 2638 4556 2919 4428 
L 2919 3944 
Q 2572 4122 2188 4122 
Q 1888 4122 1647 3987 
Q 1406 3853 1234 3608 
Q 1063 3363 970 3016 
Q 878 2669 878 2244 
L 891 2244 
Q 1200 2803 1913 2803 
Q 2206 2803 2442 2703 
Q 2678 2603 2845 2420 
Q 3013 2238 3103 1984 
Q 3194 1731 3194 1422 
z
M 2669 1356 
Q 2669 1591 2609 1778 
Q 2550 1966 2439 2097 
Q 2328 2228 2165 2298 
Q 2003 2369 1797 2369 
Q 1606 2369 1443 2297 
Q 1281 2225 1162 2101 
Q 1044 1978 976 1814 
Q 909 1650 909 1466 
Q 909 1234 975 1032 
Q 1041 831 1159 681 
Q 1278 531 1442 445 
Q 1606 359 1806 359 
Q 2000 359 2159 432 
Q 2319 506 2431 637 
Q 2544 769 2606 951 
Q 2669 1134 2669 1356 
z
" transform="scale(0.015625)"/>
       </defs>
       <use xlink:href="#SegoeUI-36"/>
       <use xlink:href="#SegoeUI-30" transform="translate(53.90625 0)"/>
       <use xlink:href="#SegoeUI-25" transform="translate(107.8125 0)"/>
      </g>
     </g>
    </g>
    <g id="ytick_5">
     <g id="line2d_5">
      <path d="M 59.135625 142.252 
L 539.015625 142.252 
" clip-path="url(#p1250421862)" style="fill: none; stroke: #e6e8f0; stroke-width: 0.8; stroke-linecap: round"/>
     </g>
     <g id="text_10">
      <!-- 80% -->
      <g style="fill: #262626" transform="translate(28.773438 146.323719) scale(0.11 -0.11)">
       <defs>
        <path id="SegoeUI-38" d="M 281 1250 
Q 281 1428 337 1608 
Q 394 1788 498 1944 
Q 603 2100 758 2228 
Q 913 2356 1109 2431 
Q 819 2594 647 2848 
Q 475 3103 475 3413 
Q 475 3659 570 3868 
Q 666 4078 834 4231 
Q 1003 4384 1234 4470 
Q 1466 4556 1734 4556 
Q 2006 4556 2237 4468 
Q 2469 4381 2637 4228 
Q 2806 4075 2900 3865 
Q 2994 3656 2994 3413 
Q 2994 3103 2822 2848 
Q 2650 2594 2366 2431 
Q 2559 2356 2712 2228 
Q 2866 2100 2970 1944 
Q 3075 1788 3131 1608 
Q 3188 1428 3188 1250 
Q 3188 956 3081 712 
Q 2975 469 2783 295 
Q 2591 122 2323 25 
Q 2056 -72 1734 -72 
Q 1416 -72 1150 25 
Q 884 122 690 295 
Q 497 469 389 712 
Q 281 956 281 1250 
z
M 838 1294 
Q 838 1084 902 915 
Q 966 747 1083 628 
Q 1200 509 1367 445 
Q 1534 381 1738 381 
Q 1934 381 2100 447 
Q 2266 513 2386 631 
Q 2506 750 2573 919 
Q 2641 1088 2641 1294 
Q 2641 1481 2577 1645 
Q 2513 1809 2394 1934 
Q 2275 2059 2109 2131 
Q 1944 2203 1738 2203 
Q 1544 2203 1380 2136 
Q 1216 2069 1095 1948 
Q 975 1828 906 1661 
Q 838 1494 838 1294 
z
M 997 3372 
Q 997 3213 1055 3077 
Q 1113 2941 1214 2839 
Q 1316 2738 1450 2680 
Q 1584 2622 1738 2622 
Q 1891 2622 2027 2681 
Q 2163 2741 2263 2842 
Q 2363 2944 2422 3080 
Q 2481 3216 2481 3372 
Q 2481 3534 2423 3671 
Q 2366 3809 2266 3909 
Q 2166 4009 2030 4067 
Q 1894 4125 1738 4125 
Q 1572 4125 1436 4065 
Q 1300 4006 1201 3904 
Q 1103 3803 1050 3665 
Q 997 3528 997 3372 
z
" transform="scale(0.015625)"/>
       </defs>
       <use xlink:href="#SegoeUI-38"/>
       <use xlink:href="#SegoeUI-30" transform="translate(53.90625 0)"/>
       <use xlink:href="#SegoeUI-25" transform="translate(107.8125 0)"/>
      </g>
     </g>
    </g>
    <g id="ytick_6">
     <g id="line2d_6">
      <path d="M 59.135625 88.292 
L 539.015625 88.292 
" clip-path="url(#p1250421862)" style="fill: none; stroke: #e6e8f0; stroke-width: 0.8; stroke-linecap: round"/>
     </g>
     <g id="text_11">
      <!-- 100% -->
      <g style="fill: #262626" transform="translate(22.84375 92.363719) scale(0.11 -0.11)">
       <use xlink:href="#SegoeUI-31"/>
       <use xlink:href="#SegoeUI-30" transform="translate(53.90625 0)"/>
       <use xlink:href="#SegoeUI-30" transform="translate(107.8125 0)"/>
       <use xlink:href="#SegoeUI-25" transform="translate(161.71875 0)"/>
      </g>
     </g>
    </g>
    <g id="text_12">
     <!-- F1-score -->
     <g style="fill: #1f2430" transform="translate(16.08375 234.9375) rotate(-90) scale(0.12 -0.12)">
      <defs>
       <path id="SegoeUI-46" d="M 2863 4006 
L 1113 4006 
L 1113 2456 
L 2731 2456 
L 2731 1984 
L 1113 1984 
L 1113 0 
L 588 0 
L 588 4481 
L 2863 4481 
L 2863 4006 
z
" transform="scale(0.015625)"/>
       <path id="SegoeUI-73" d="M 325 116 
L 325 666 
Q 744 356 1247 356 
Q 1922 356 1922 806 
Q 1922 934 1864 1023 
Q 1806 1113 1707 1181 
Q 1609 1250 1476 1304 
Q 1344 1359 1191 1419 
Q 978 1503 817 1589 
Q 656 1675 548 1783 
Q 441 1891 386 2028 
Q 331 2166 331 2350 
Q 331 2575 434 2748 
Q 538 2922 709 3039 
Q 881 3156 1101 3215 
Q 1322 3275 1556 3275 
Q 1972 3275 2300 3131 
L 2300 2613 
Q 1947 2844 1488 2844 
Q 1344 2844 1228 2811 
Q 1113 2778 1030 2718 
Q 947 2659 901 2576 
Q 856 2494 856 2394 
Q 856 2269 901 2184 
Q 947 2100 1034 2034 
Q 1122 1969 1247 1916 
Q 1372 1863 1531 1800 
Q 1744 1719 1912 1633 
Q 2081 1547 2200 1439 
Q 2319 1331 2383 1190 
Q 2447 1050 2447 856 
Q 2447 619 2342 444 
Q 2238 269 2063 153 
Q 1888 38 1659 -18 
Q 1431 -75 1181 -75 
Q 688 -75 325 116 
z
" transform="scale(0.015625)"/>
      </defs>
      <use xlink:href="#SegoeUI-46"/>
      <use xlink:href="#SegoeUI-31" transform="translate(48.828125 0)"/>
      <use xlink:href="#SegoeUI-2d" transform="translate(102.734375 0)"/>
      <use xlink:href="#SegoeUI-73" transform="translate(142.724609 0)"/>
      <use xlink:href="#SegoeUI-63" transform="translate(185.15625 0)"/>
      <use xlink:href="#SegoeUI-6f" transform="translate(231.347656 0)"/>
      <use xlink:href="#SegoeUI-72" transform="translate(289.941406 0)"/>
      <use xlink:href="#SegoeUI-65" transform="translate(323.332031 0)"/>
     </g>
    </g>
   </g>
   <g id="patch_3">
    <path d="M 80.948352 358.092 
L 153.657443 358.092 
L 153.657443 88.292 
L 80.948352 88.292 
z
" clip-path="url(#p1250421862)" style="fill: #a3befa; stroke: #2e4780; stroke-linejoin: miter"/>
   </g>
   <g id="patch_4">
    <path d="M 171.834716 358.092 
L 244.543807 358.092 
L 244.543807 88.323685 
L 171.834716 88.323685 
z
" clip-path="url(#p1250421862)" style="fill: #ffe15b; stroke: #736422; stroke-linejoin: miter"/>
   </g>
   <g id="patch_5">
    <path d="M 262.72108 358.092 
L 335.43017 358.092 
L 335.43017 88.365817 
L 262.72108 88.365817 
z
" clip-path="url(#p1250421862)" style="fill: #f0986e; stroke: #804126; stroke-linejoin: miter"/>
   </g>
   <g id="patch_6">
    <path d="M 353.607443 358.092 
L 426.316534 358.092 
L 426.316534 88.327167 
L 353.607443 88.327167 
z
" clip-path="url(#p1250421862)" style="fill: #a3d576; stroke: #386411; stroke-linejoin: miter"/>
   </g>
   <g id="patch_7">
    <path d="M 444.493807 358.092 
L 517.202898 358.092 
L 517.202898 88.294749 
L 444.493807 88.294749 
z
" clip-path="url(#p1250421862)" style="fill: #f390ca; stroke: #8a3a6f; stroke-linejoin: miter"/>
   </g>
   <g id="patch_8">
    <path d="M 59.135625 358.092 
L 59.135625 66.708 
" style="fill: none; stroke: #d7dbe7; stroke-width: 1.25; stroke-linejoin: miter; stroke-linecap: square"/>
   </g>
   <g id="patch_9">
    <path d="M 59.135625 358.092 
L 539.015625 358.092 
" style="fill: none; stroke: #d7dbe7; stroke-width: 1.25; stroke-linejoin: miter; stroke-linecap: square"/>
   </g>
   <g id="text_13">
    <!-- 1.000 -->
    <g style="fill: #1f2430" transform="translate(106.623835 79.477) scale(0.09 -0.09)">
     <defs>
      <path id="SegoeUI-2e" d="M 697 -69 
Q 553 -69 451 34 
Q 350 138 350 281 
Q 350 425 451 529 
Q 553 634 697 634 
Q 844 634 947 529 
Q 1050 425 1050 281 
Q 1050 138 947 34 
Q 844 -69 697 -69 
z
" transform="scale(0.015625)"/>
     </defs>
     <use xlink:href="#SegoeUI-31"/>
     <use xlink:href="#SegoeUI-2e" transform="translate(53.90625 0)"/>
     <use xlink:href="#SegoeUI-30" transform="translate(75.585938 0)"/>
     <use xlink:href="#SegoeUI-30" transform="translate(129.492188 0)"/>
     <use xlink:href="#SegoeUI-30" transform="translate(183.398438 0)"/>
    </g>
   </g>
   <g id="text_14">
    <!-- 1.000 -->
    <g style="fill: #1f2430" transform="translate(197.510199 79.508685) scale(0.09 -0.09)">
     <use xlink:href="#SegoeUI-31"/>
     <use xlink:href="#SegoeUI-2e" transform="translate(53.90625 0)"/>
     <use xlink:href="#SegoeUI-30" transform="translate(75.585938 0)"/>
     <use xlink:href="#SegoeUI-30" transform="translate(129.492188 0)"/>
     <use xlink:href="#SegoeUI-30" transform="translate(183.398438 0)"/>
    </g>
   </g>
   <g id="text_15">
    <!-- 1.000 -->
    <g style="fill: #1f2430" transform="translate(288.396563 79.550817) scale(0.09 -0.09)">
     <use xlink:href="#SegoeUI-31"/>
     <use xlink:href="#SegoeUI-2e" transform="translate(53.90625 0)"/>
     <use xlink:href="#SegoeUI-30" transform="translate(75.585938 0)"/>
     <use xlink:href="#SegoeUI-30" transform="translate(129.492188 0)"/>
     <use xlink:href="#SegoeUI-30" transform="translate(183.398438 0)"/>
    </g>
   </g>
   <g id="text_16">
    <!-- 1.000 -->
    <g style="fill: #1f2430" transform="translate(379.282926 79.512167) scale(0.09 -0.09)">
     <use xlink:href="#SegoeUI-31"/>
     <use xlink:href="#SegoeUI-2e" transform="translate(53.90625 0)"/>
     <use xlink:href="#SegoeUI-30" transform="translate(75.585938 0)"/>
     <use xlink:href="#SegoeUI-30" transform="translate(129.492188 0)"/>
     <use xlink:href="#SegoeUI-30" transform="translate(183.398438 0)"/>
    </g>
   </g>
   <g id="text_17">
    <!-- 1.000 -->
    <g style="fill: #1f2430" transform="translate(470.16929 79.479749) scale(0.09 -0.09)">
     <use xlink:href="#SegoeUI-31"/>
     <use xlink:href="#SegoeUI-2e" transform="translate(53.90625 0)"/>
     <use xlink:href="#SegoeUI-30" transform="translate(75.585938 0)"/>
     <use xlink:href="#SegoeUI-30" transform="translate(129.492188 0)"/>
     <use xlink:href="#SegoeUI-30" transform="translate(183.398438 0)"/>
    </g>
   </g>
  </g>
  <g id="text_18">
   <!-- F1-score du Random Forest H2S -->
   <g style="fill: #1f2430" transform="translate(59.135625 18.304687) scale(0.15 -0.15)">
    <defs>
     <path id="SegoeUI-Semibold-46" d="M 2972 3850 
L 1297 3850 
L 1297 2503 
L 2841 2503 
L 2841 1875 
L 1297 1875 
L 1297 0 
L 553 0 
L 553 4481 
L 2972 4481 
L 2972 3850 
z
" transform="scale(0.015625)"/>
     <path id="SegoeUI-Semibold-31" d="M 1922 4581 
L 1922 0 
L 1197 0 
L 1197 3694 
Q 1000 3553 773 3454 
Q 547 3356 256 3281 
L 256 3900 
Q 438 3959 606 4025 
Q 775 4091 939 4172 
Q 1103 4253 1270 4353 
Q 1438 4453 1616 4581 
L 1922 4581 
z
" transform="scale(0.015625)"/>
     <path id="SegoeUI-Semibold-2d" d="M 2156 1481 
L 450 1481 
L 450 2016 
L 2156 2016 
L 2156 1481 
z
" transform="scale(0.015625)"/>
     <path id="SegoeUI-Semibold-73" d="M 272 100 
L 272 772 
Q 678 463 1169 463 
Q 1825 463 1825 850 
Q 1825 959 1769 1036 
Q 1713 1113 1617 1172 
Q 1522 1231 1392 1278 
Q 1263 1325 1103 1384 
Q 906 1463 748 1550 
Q 591 1638 486 1748 
Q 381 1859 328 2000 
Q 275 2141 275 2328 
Q 275 2559 384 2736 
Q 494 2913 678 3033 
Q 863 3153 1097 3214 
Q 1331 3275 1581 3275 
Q 2025 3275 2375 3141 
L 2375 2506 
Q 2038 2738 1600 2738 
Q 1463 2738 1352 2709 
Q 1241 2681 1162 2631 
Q 1084 2581 1040 2511 
Q 997 2441 997 2356 
Q 997 2253 1040 2181 
Q 1084 2109 1170 2054 
Q 1256 2000 1376 1954 
Q 1497 1909 1653 1856 
Q 1859 1772 2023 1684 
Q 2188 1597 2303 1486 
Q 2419 1375 2481 1229 
Q 2544 1084 2544 884 
Q 2544 641 2431 459 
Q 2319 278 2131 159 
Q 1944 41 1698 -17 
Q 1453 -75 1181 -75 
Q 656 -75 272 100 
z
" transform="scale(0.015625)"/>
     <path id="SegoeUI-Semibold-63" d="M 2763 147 
Q 2378 -75 1853 -75 
Q 1141 -75 703 370 
Q 266 816 266 1525 
Q 266 2316 736 2795 
Q 1206 3275 1994 3275 
Q 2431 3275 2766 3122 
L 2766 2447 
Q 2431 2697 2053 2697 
Q 1594 2697 1300 2386 
Q 1006 2075 1006 1572 
Q 1006 1075 1282 787 
Q 1559 500 2025 500 
Q 2416 500 2763 778 
L 2763 147 
z
" transform="scale(0.015625)"/>
     <path id="SegoeUI-Semibold-6f" d="M 1891 -75 
Q 1150 -75 708 373 
Q 266 822 266 1563 
Q 266 2369 727 2822 
Q 1188 3275 1969 3275 
Q 2719 3275 3137 2834 
Q 3556 2394 3556 1613 
Q 3556 847 3104 386 
Q 2653 -75 1891 -75 
z
M 1925 2697 
Q 1500 2697 1253 2400 
Q 1006 2103 1006 1581 
Q 1006 1078 1256 789 
Q 1506 500 1925 500 
Q 2353 500 2583 784 
Q 2813 1069 2813 1594 
Q 2813 2122 2583 2409 
Q 2353 2697 1925 2697 
z
" transform="scale(0.015625)"/>
     <path id="SegoeUI-Semibold-72" d="M 2328 2509 
Q 2197 2613 1950 2613 
Q 1628 2613 1412 2322 
Q 1197 2031 1197 1531 
L 1197 0 
L 472 0 
L 472 3200 
L 1197 3200 
L 1197 2541 
L 1209 2541 
Q 1316 2878 1536 3067 
Q 1756 3256 2028 3256 
Q 2225 3256 2328 3197 
L 2328 2509 
z
" transform="scale(0.015625)"/>
     <path id="SegoeUI-Semibold-65" d="M 3181 1403 
L 1000 1403 
Q 1013 959 1273 718 
Q 1534 478 1991 478 
Q 2503 478 2931 784 
L 2931 200 
Q 2494 -75 1775 -75 
Q 1069 -75 667 361 
Q 266 797 266 1588 
Q 266 2334 708 2804 
Q 1150 3275 1806 3275 
Q 2463 3275 2822 2853 
Q 3181 2431 3181 1681 
L 3181 1403 
z
M 2481 1916 
Q 2478 2306 2297 2523 
Q 2116 2741 1797 2741 
Q 1484 2741 1267 2512 
Q 1050 2284 1000 1916 
L 2481 1916 
z
" transform="scale(0.015625)"/>
     <path id="SegoeUI-Semibold-20" transform="scale(0.015625)"/>
     <path id="SegoeUI-Semibold-64" d="M 3381 0 
L 2656 0 
L 2656 544 
L 2644 544 
Q 2294 -75 1566 -75 
Q 975 -75 620 354 
Q 266 784 266 1525 
Q 266 2319 658 2797 
Q 1050 3275 1703 3275 
Q 2350 3275 2644 2756 
L 2656 2756 
L 2656 4738 
L 3381 4738 
L 3381 0 
z
M 2666 1463 
L 2666 1881 
Q 2666 2222 2444 2459 
Q 2222 2697 1878 2697 
Q 1472 2697 1239 2394 
Q 1006 2091 1006 1553 
Q 1006 1066 1229 783 
Q 1453 500 1831 500 
Q 2203 500 2434 773 
Q 2666 1047 2666 1463 
z
" transform="scale(0.015625)"/>
     <path id="SegoeUI-Semibold-75" d="M 3263 0 
L 2538 0 
L 2538 506 
L 2525 506 
Q 2209 -75 1544 -75 
Q 409 -75 409 1288 
L 409 3200 
L 1134 3200 
L 1134 1363 
Q 1134 500 1800 500 
Q 2122 500 2330 737 
Q 2538 975 2538 1359 
L 2538 3200 
L 3263 3200 
L 3263 0 
z
" transform="scale(0.015625)"/>
     <path id="SegoeUI-Semibold-52" d="M 4016 0 
L 3147 0 
L 2431 1200 
Q 2334 1366 2242 1483 
Q 2150 1600 2054 1675 
Q 1959 1750 1846 1784 
Q 1734 1819 1594 1819 
L 1294 1819 
L 1294 0 
L 553 0 
L 553 4481 
L 2028 4481 
Q 2344 4481 2609 4406 
Q 2875 4331 3072 4179 
Q 3269 4028 3380 3801 
Q 3491 3575 3491 3272 
Q 3491 3034 3420 2836 
Q 3350 2638 3220 2483 
Q 3091 2328 2908 2218 
Q 2725 2109 2497 2050 
L 2497 2038 
Q 2619 1969 2709 1886 
Q 2800 1803 2881 1715 
Q 2963 1628 3042 1517 
Q 3122 1406 3219 1259 
L 4016 0 
z
M 1294 3878 
L 1294 2422 
L 1913 2422 
Q 2084 2422 2229 2475 
Q 2375 2528 2481 2628 
Q 2588 2728 2647 2872 
Q 2706 3016 2706 3194 
Q 2706 3516 2503 3697 
Q 2300 3878 1919 3878 
L 1294 3878 
z
" transform="scale(0.015625)"/>
     <path id="SegoeUI-Semibold-61" d="M 2928 0 
L 2225 0 
L 2225 500 
L 2213 500 
Q 1881 -75 1241 -75 
Q 769 -75 501 181 
Q 234 438 234 859 
Q 234 1766 1278 1916 
L 2228 2050 
Q 2228 2734 1578 2734 
Q 1006 2734 547 2341 
L 547 2975 
Q 1053 3275 1716 3275 
Q 2928 3275 2928 2081 
L 2928 0 
z
M 2228 1572 
L 1556 1478 
Q 1244 1438 1086 1327 
Q 928 1216 928 938 
Q 928 734 1073 604 
Q 1219 475 1463 475 
Q 1794 475 2011 708 
Q 2228 941 2228 1294 
L 2228 1572 
z
" transform="scale(0.015625)"/>
     <path id="SegoeUI-Semibold-6e" d="M 3322 0 
L 2597 0 
L 2597 1803 
Q 2597 2700 1963 2700 
Q 1631 2700 1415 2451 
Q 1200 2203 1200 1825 
L 1200 0 
L 472 0 
L 472 3200 
L 1200 3200 
L 1200 2669 
L 1213 2669 
Q 1572 3275 2250 3275 
Q 2772 3275 3047 2936 
Q 3322 2597 3322 1956 
L 3322 0 
z
" transform="scale(0.015625)"/>
     <path id="SegoeUI-Semibold-6d" d="M 5256 0 
L 4531 0 
L 4531 1744 
Q 4531 2247 4389 2472 
Q 4247 2697 3909 2697 
Q 3625 2697 3426 2412 
Q 3228 2128 3228 1731 
L 3228 0 
L 2500 0 
L 2500 1803 
Q 2500 2697 1869 2697 
Q 1575 2697 1386 2428 
Q 1197 2159 1197 1731 
L 1197 0 
L 472 0 
L 472 3200 
L 1197 3200 
L 1197 2694 
L 1209 2694 
Q 1556 3275 2219 3275 
Q 2550 3275 2798 3092 
Q 3047 2909 3138 2613 
Q 3494 3275 4200 3275 
Q 5256 3275 5256 1972 
L 5256 0 
z
" transform="scale(0.015625)"/>
     <path id="SegoeUI-Semibold-74" d="M 2159 34 
Q 1947 -72 1600 -72 
Q 669 -72 669 822 
L 669 2631 
L 134 2631 
L 134 3200 
L 669 3200 
L 669 3941 
L 1394 4147 
L 1394 3200 
L 2159 3200 
L 2159 2631 
L 1394 2631 
L 1394 1031 
Q 1394 747 1497 625 
Q 1600 503 1841 503 
Q 2025 503 2159 609 
L 2159 34 
z
" transform="scale(0.015625)"/>
     <path id="SegoeUI-Semibold-48" d="M 4153 0 
L 3406 0 
L 3406 1944 
L 1297 1944 
L 1297 0 
L 553 0 
L 553 4481 
L 1297 4481 
L 1297 2597 
L 3406 2597 
L 3406 4481 
L 4153 4481 
L 4153 0 
z
" transform="scale(0.015625)"/>
     <path id="SegoeUI-Semibold-32" d="M 3119 0 
L 306 0 
L 306 347 
Q 306 559 365 745 
Q 425 931 525 1095 
Q 625 1259 759 1404 
Q 894 1550 1047 1686 
Q 1200 1822 1359 1948 
Q 1519 2075 1672 2203 
Q 1816 2325 1934 2442 
Q 2053 2559 2137 2684 
Q 2222 2809 2269 2948 
Q 2316 3088 2316 3250 
Q 2316 3428 2261 3561 
Q 2206 3694 2107 3783 
Q 2009 3872 1875 3917 
Q 1741 3963 1581 3963 
Q 1306 3963 1022 3834 
Q 738 3706 475 3450 
L 475 4147 
Q 613 4250 753 4326 
Q 894 4403 1044 4454 
Q 1194 4506 1359 4531 
Q 1525 4556 1713 4556 
Q 2016 4556 2262 4476 
Q 2509 4397 2684 4242 
Q 2859 4088 2954 3856 
Q 3050 3625 3050 3325 
Q 3050 3053 2983 2836 
Q 2916 2619 2792 2431 
Q 2669 2244 2494 2075 
Q 2319 1906 2103 1728 
Q 1922 1581 1742 1442 
Q 1563 1303 1419 1170 
Q 1275 1038 1186 905 
Q 1097 772 1097 638 
L 1097 622 
L 3119 622 
L 3119 0 
z
" transform="scale(0.015625)"/>
     <path id="SegoeUI-Semibold-53" d="M 347 178 
L 347 944 
Q 450 850 592 775 
Q 734 700 893 648 
Q 1053 597 1212 569 
Q 1372 541 1506 541 
Q 1975 541 2204 697 
Q 2434 853 2434 1150 
Q 2434 1309 2357 1426 
Q 2281 1544 2143 1641 
Q 2006 1738 1820 1827 
Q 1634 1916 1422 2013 
Q 1194 2134 997 2259 
Q 800 2384 654 2536 
Q 509 2688 426 2878 
Q 344 3069 344 3325 
Q 344 3641 486 3873 
Q 628 4106 861 4257 
Q 1094 4409 1391 4482 
Q 1688 4556 1997 4556 
Q 2700 4556 3022 4397 
L 3022 3663 
Q 2641 3938 2041 3938 
Q 1875 3938 1711 3906 
Q 1547 3875 1417 3803 
Q 1288 3731 1206 3618 
Q 1125 3506 1125 3347 
Q 1125 3197 1187 3087 
Q 1250 2978 1370 2887 
Q 1491 2797 1664 2711 
Q 1838 2625 2066 2525 
Q 2300 2403 2508 2268 
Q 2716 2134 2873 1971 
Q 3031 1809 3123 1611 
Q 3216 1413 3216 1159 
Q 3216 819 3078 584 
Q 2941 350 2708 203 
Q 2475 56 2172 -9 
Q 1869 -75 1531 -75 
Q 1419 -75 1255 -58 
Q 1091 -41 919 -8 
Q 747 25 594 72 
Q 441 119 347 178 
z
" transform="scale(0.015625)"/>
    </defs>
    <use xlink:href="#SegoeUI-Semibold-46"/>
    <use xlink:href="#SegoeUI-Semibold-31" transform="translate(50.244141 0)"/>
    <use xlink:href="#SegoeUI-Semibold-2d" transform="translate(90.478516 0)"/>
    <use xlink:href="#SegoeUI-Semibold-73" transform="translate(130.664062 0)"/>
    <use xlink:href="#SegoeUI-Semibold-63" transform="translate(173.779297 0)"/>
    <use xlink:href="#SegoeUI-Semibold-6f" transform="translate(220.800781 0)"/>
    <use xlink:href="#SegoeUI-Semibold-72" transform="translate(280.517578 0)"/>
    <use xlink:href="#SegoeUI-Semibold-65" transform="translate(316.654297 0)"/>
    <use xlink:href="#SegoeUI-Semibold-20" transform="translate(369.779297 0)"/>
    <use xlink:href="#SegoeUI-Semibold-64" transform="translate(397.269531 0)"/>
    <use xlink:href="#SegoeUI-Semibold-75" transform="translate(457.523438 0)"/>
    <use xlink:href="#SegoeUI-Semibold-20" transform="translate(515.873047 0)"/>
    <use xlink:href="#SegoeUI-Semibold-52" transform="translate(543.363281 0)"/>
    <use xlink:href="#SegoeUI-Semibold-61" transform="translate(605.619141 0)"/>
    <use xlink:href="#SegoeUI-Semibold-6e" transform="translate(657.816406 0)"/>
    <use xlink:href="#SegoeUI-Semibold-64" transform="translate(716.166016 0)"/>
    <use xlink:href="#SegoeUI-Semibold-6f" transform="translate(776.419922 0)"/>
    <use xlink:href="#SegoeUI-Semibold-6d" transform="translate(836.136719 0)"/>
    <use xlink:href="#SegoeUI-Semibold-20" transform="translate(924.710938 0)"/>
    <use xlink:href="#SegoeUI-Semibold-46" transform="translate(952.201172 0)"/>
    <use xlink:href="#SegoeUI-Semibold-6f" transform="translate(1002.445312 0)"/>
    <use xlink:href="#SegoeUI-Semibold-72" transform="translate(1062.162109 0)"/>
    <use xlink:href="#SegoeUI-Semibold-65" transform="translate(1098.298828 0)"/>
    <use xlink:href="#SegoeUI-Semibold-73" transform="translate(1151.423828 0)"/>
    <use xlink:href="#SegoeUI-Semibold-74" transform="translate(1194.539062 0)"/>
    <use xlink:href="#SegoeUI-Semibold-20" transform="translate(1230.671875 0)"/>
    <use xlink:href="#SegoeUI-Semibold-48" transform="translate(1258.162109 0)"/>
    <use xlink:href="#SegoeUI-Semibold-32" transform="translate(1331.697266 0)"/>
    <use xlink:href="#SegoeUI-Semibold-53" transform="translate(1387.214844 0)"/>
   </g>
  </g>
  <g id="text_19">
   <!-- F1 par classe et moyennes globales sur le jeu de test ; accuracy=1.000, balanced accuracy=1.000. -->
   <g style="fill: #6f768a" transform="translate(59.135625 34.752969) scale(0.095 -0.095)">
    <defs>
     <path id="SegoeUI-74" d="M 2003 31 
Q 1822 -69 1525 -69 
Q 684 -69 684 869 
L 684 2763 
L 134 2763 
L 134 3200 
L 684 3200 
L 684 3981 
L 1197 4147 
L 1197 3200 
L 2003 3200 
L 2003 2763 
L 1197 2763 
L 1197 959 
Q 1197 638 1306 500 
Q 1416 363 1669 363 
Q 1863 363 2003 469 
L 2003 31 
z
" transform="scale(0.015625)"/>
     <path id="SegoeUI-6a" d="M 1031 134 
Q 1031 -653 714 -1079 
Q 397 -1506 -194 -1506 
Q -413 -1506 -619 -1406 
L -619 -928 
Q -388 -1069 -181 -1069 
Q 519 -1069 519 50 
L 519 3200 
L 1031 3200 
L 1031 134 
z
M 781 4013 
Q 644 4013 547 4106 
Q 450 4200 450 4344 
Q 450 4488 547 4583 
Q 644 4678 781 4678 
Q 922 4678 1020 4583 
Q 1119 4488 1119 4344 
Q 1119 4206 1020 4109 
Q 922 4013 781 4013 
z
" transform="scale(0.015625)"/>
     <path id="SegoeUI-3b" d="M 706 2575 
Q 559 2575 457 2678 
Q 356 2781 356 2925 
Q 356 3069 457 3169 
Q 559 3269 706 3269 
Q 850 3269 953 3169 
Q 1056 3069 1056 2925 
Q 1056 2781 953 2678 
Q 850 2575 706 2575 
z
M 988 713 
L 488 -825 
L 122 -825 
L 488 713 
L 988 713 
z
" transform="scale(0.015625)"/>
     <path id="SegoeUI-2c" d="M 988 713 
L 488 -825 
L 122 -825 
L 488 713 
L 988 713 
z
" transform="scale(0.015625)"/>
    </defs>
    <use xlink:href="#SegoeUI-46"/>
    <use xlink:href="#SegoeUI-31" transform="translate(48.828125 0)"/>
    <use xlink:href="#SegoeUI-20" transform="translate(102.734375 0)"/>
    <use xlink:href="#SegoeUI-70" transform="translate(130.126953 0)"/>
    <use xlink:href="#SegoeUI-61" transform="translate(187.541016 0)"/>
    <use xlink:href="#SegoeUI-72" transform="translate(238.419922 0)"/>
    <use xlink:href="#SegoeUI-20" transform="translate(273.185547 0)"/>
    <use xlink:href="#SegoeUI-63" transform="translate(300.578125 0)"/>
    <use xlink:href="#SegoeUI-6c" transform="translate(346.769531 0)"/>
    <use xlink:href="#SegoeUI-61" transform="translate(370.988281 0)"/>
    <use xlink:href="#SegoeUI-73" transform="translate(421.867188 0)"/>
    <use xlink:href="#SegoeUI-73" transform="translate(464.298828 0)"/>
    <use xlink:href="#SegoeUI-65" transform="translate(506.730469 0)"/>
    <use xlink:href="#SegoeUI-20" transform="translate(559.025391 0)"/>
    <use xlink:href="#SegoeUI-65" transform="translate(586.417969 0)"/>
    <use xlink:href="#SegoeUI-74" transform="translate(638.712891 0)"/>
    <use xlink:href="#SegoeUI-20" transform="translate(672.599609 0)"/>
    <use xlink:href="#SegoeUI-6d" transform="translate(699.992188 0)"/>
    <use xlink:href="#SegoeUI-6f" transform="translate(786.125 0)"/>
    <use xlink:href="#SegoeUI-79" transform="translate(844.71875 0)"/>
    <use xlink:href="#SegoeUI-65" transform="translate(892.607422 0)"/>
    <use xlink:href="#SegoeUI-6e" transform="translate(944.902344 0)"/>
    <use xlink:href="#SegoeUI-6e" transform="translate(1001.494141 0)"/>
    <use xlink:href="#SegoeUI-65" transform="translate(1058.085938 0)"/>
    <use xlink:href="#SegoeUI-73" transform="translate(1110.380859 0)"/>
    <use xlink:href="#SegoeUI-20" transform="translate(1152.8125 0)"/>
    <use xlink:href="#SegoeUI-67" transform="translate(1180.205078 0)"/>
    <use xlink:href="#SegoeUI-6c" transform="translate(1239.091797 0)"/>
    <use xlink:href="#SegoeUI-6f" transform="translate(1263.310547 0)"/>
    <use xlink:href="#SegoeUI-62" transform="translate(1321.904297 0)"/>
    <use xlink:href="#SegoeUI-61" transform="translate(1379.318359 0)"/>
    <use xlink:href="#SegoeUI-6c" transform="translate(1430.197266 0)"/>
    <use xlink:href="#SegoeUI-65" transform="translate(1454.416016 0)"/>
    <use xlink:href="#SegoeUI-73" transform="translate(1506.710938 0)"/>
    <use xlink:href="#SegoeUI-20" transform="translate(1549.142578 0)"/>
    <use xlink:href="#SegoeUI-73" transform="translate(1576.535156 0)"/>
    <use xlink:href="#SegoeUI-75" transform="translate(1618.966797 0)"/>
    <use xlink:href="#SegoeUI-72" transform="translate(1675.558594 0)"/>
    <use xlink:href="#SegoeUI-20" transform="translate(1710.324219 0)"/>
    <use xlink:href="#SegoeUI-6c" transform="translate(1737.716797 0)"/>
    <use xlink:href="#SegoeUI-65" transform="translate(1761.935547 0)"/>
    <use xlink:href="#SegoeUI-20" transform="translate(1814.230469 0)"/>
    <use xlink:href="#SegoeUI-6a" transform="translate(1841.623047 0)"/>
    <use xlink:href="#SegoeUI-65" transform="translate(1865.841797 0)"/>
    <use xlink:href="#SegoeUI-75" transform="translate(1918.136719 0)"/>
    <use xlink:href="#SegoeUI-20" transform="translate(1974.728516 0)"/>
    <use xlink:href="#SegoeUI-64" transform="translate(2002.121094 0)"/>
    <use xlink:href="#SegoeUI-65" transform="translate(2061.007812 0)"/>
    <use xlink:href="#SegoeUI-20" transform="translate(2113.302734 0)"/>
    <use xlink:href="#SegoeUI-74" transform="translate(2140.695312 0)"/>
    <use xlink:href="#SegoeUI-65" transform="translate(2173.832031 0)"/>
    <use xlink:href="#SegoeUI-73" transform="translate(2226.126953 0)"/>
    <use xlink:href="#SegoeUI-74" transform="translate(2268.558594 0)"/>
    <use xlink:href="#SegoeUI-20" transform="translate(2302.445312 0)"/>
    <use xlink:href="#SegoeUI-3b" transform="translate(2329.837891 0)"/>
    <use xlink:href="#SegoeUI-20" transform="translate(2351.517578 0)"/>
    <use xlink:href="#SegoeUI-61" transform="translate(2378.910156 0)"/>
    <use xlink:href="#SegoeUI-63" transform="translate(2429.789062 0)"/>
    <use xlink:href="#SegoeUI-63" transform="translate(2475.980469 0)"/>
    <use xlink:href="#SegoeUI-75" transform="translate(2522.171875 0)"/>
    <use xlink:href="#SegoeUI-72" transform="translate(2578.763672 0)"/>
    <use xlink:href="#SegoeUI-61" transform="translate(2613.529297 0)"/>
    <use xlink:href="#SegoeUI-63" transform="translate(2664.408203 0)"/>
    <use xlink:href="#SegoeUI-79" transform="translate(2710.599609 0)"/>
    <use xlink:href="#SegoeUI-3d" transform="translate(2758.988281 0)"/>
    <use xlink:href="#SegoeUI-31" transform="translate(2827.396484 0)"/>
    <use xlink:href="#SegoeUI-2e" transform="translate(2881.302734 0)"/>
    <use xlink:href="#SegoeUI-30" transform="translate(2902.982422 0)"/>
    <use xlink:href="#SegoeUI-30" transform="translate(2956.888672 0)"/>
    <use xlink:href="#SegoeUI-30" transform="translate(3010.794922 0)"/>
    <use xlink:href="#SegoeUI-2c" transform="translate(3064.701172 0)"/>
    <use xlink:href="#SegoeUI-20" transform="translate(3086.380859 0)"/>
    <use xlink:href="#SegoeUI-62" transform="translate(3113.773438 0)"/>
    <use xlink:href="#SegoeUI-61" transform="translate(3171.1875 0)"/>
    <use xlink:href="#SegoeUI-6c" transform="translate(3222.066406 0)"/>
    <use xlink:href="#SegoeUI-61" transform="translate(3246.285156 0)"/>
    <use xlink:href="#SegoeUI-6e" transform="translate(3297.164062 0)"/>
    <use xlink:href="#SegoeUI-63" transform="translate(3353.755859 0)"/>
    <use xlink:href="#SegoeUI-65" transform="translate(3399.947266 0)"/>
    <use xlink:href="#SegoeUI-64" transform="translate(3452.242188 0)"/>
    <use xlink:href="#SegoeUI-20" transform="translate(3511.128906 0)"/>
    <use xlink:href="#SegoeUI-61" transform="translate(3538.521484 0)"/>
    <use xlink:href="#SegoeUI-63" transform="translate(3589.400391 0)"/>
    <use xlink:href="#SegoeUI-63" transform="translate(3635.591797 0)"/>
    <use xlink:href="#SegoeUI-75" transform="translate(3681.783203 0)"/>
    <use xlink:href="#SegoeUI-72" transform="translate(3738.375 0)"/>
    <use xlink:href="#SegoeUI-61" transform="translate(3773.140625 0)"/>
    <use xlink:href="#SegoeUI-63" transform="translate(3824.019531 0)"/>
    <use xlink:href="#SegoeUI-79" transform="translate(3870.210938 0)"/>
    <use xlink:href="#SegoeUI-3d" transform="translate(3918.599609 0)"/>
    <use xlink:href="#SegoeUI-31" transform="translate(3987.007812 0)"/>
    <use xlink:href="#SegoeUI-2e" transform="translate(4040.914062 0)"/>
    <use xlink:href="#SegoeUI-30" transform="translate(4062.59375 0)"/>
    <use xlink:href="#SegoeUI-30" transform="translate(4116.5 0)"/>
    <use xlink:href="#SegoeUI-30" transform="translate(4170.40625 0)"/>
    <use xlink:href="#SegoeUI-2e" transform="translate(4224.3125 0)"/>
   </g>
  </g>
 </g>
 <defs>
  <clipPath id="p1250421862">
   <rect x="59.135625" y="66.708" width="479.88" height="291.384"/>
  </clipPath>
 </defs>
</svg>
