<?xml version="1.0" encoding="utf-8" standalone="no"?>
<!DOCTYPE svg PUBLIC "-//W3C//DTD SVG 1.1//EN"
  "http://www.w3.org/Graphics/SVG/1.1/DTD/svg11.dtd">
<svg xmlns:xlink="http://www.w3.org/1999/xlink" width="939.168pt" height="323.905437pt" viewBox="0 0 939.168 323.905437" xmlns="http://www.w3.org/2000/svg" version="1.1">
 <metadata>
  <rdf:RDF xmlns:dc="http://purl.org/dc/elements/1.1/" xmlns:cc="http://creativecommons.org/ns#" xmlns:rdf="http://www.w3.org/1999/02/22-rdf-syntax-ns#">
   <cc:Work>
    <dc:type rdf:resource="http://purl.org/dc/dcmitype/StillImage"/>
    <dc:date>2026-07-02T17:11:21.206647</dc:date>
    <dc:format>image/svg+xml</dc:format>
    <dc:creator>
     <cc:Agent>
      <dc:title>Matplotlib v3.10.9, https://matplotlib.org/</dc:title>
     </cc:Agent>
    </dc:creator>
   </cc:Work>
  </rdf:RDF>
 </metadata>
 <defs>
  <style type="text/css">*{stroke-linejoin: round; stroke-linecap: butt}</style>
 </defs>
 <g id="figure_1">
  <g id="patch_1">
   <path d="M -0 323.905437 
L 939.168 323.905437 
L 939.168 0 
L -0 0 
z
" style="fill: #fcfcfd"/>
  </g>
  <g id="axes_1">
   <g id="patch_2">
    <path d="M 83.808 296.532 
L 313.040432 296.532 
L 313.040432 73.188 
L 83.808 73.188 
z
" style="fill: #ffffff"/>
   </g>
   <g id="matplotlib.axis_1">
    <g id="xtick_1">
     <g id="text_1">
      <!-- Normal -->
      <g style="fill: #262626" transform="translate(105.894508 314.175437) scale(0.11 -0.11)">
       <defs>
        <path id="SegoeUI-4e" d="M 4200 0 
L 3556 0 
L 1250 3572 
Q 1163 3706 1106 3853 
L 1088 3853 
Q 1113 3709 1113 3238 
L 1113 0 
L 588 0 
L 588 4481 
L 1269 4481 
L 3513 966 
Q 3653 747 3694 666 
L 3706 666 
Q 3675 859 3675 1325 
L 3675 4481 
L 4200 4481 
L 4200 0 
z
" transform="scale(0.015625)"/>
        <path id="SegoeUI-6f" d="M 1856 -75 
Q 1147 -75 723 373 
Q 300 822 300 1563 
Q 300 2369 740 2822 
Q 1181 3275 1931 3275 
Q 2647 3275 3048 2834 
Q 3450 2394 3450 1613 
Q 3450 847 3017 386 
Q 2584 -75 1856 -75 
z
M 1894 2844 
Q 1400 2844 1112 2508 
Q 825 2172 825 1581 
Q 825 1013 1115 684 
Q 1406 356 1894 356 
Q 2391 356 2658 678 
Q 2925 1000 2925 1594 
Q 2925 2194 2658 2519 
Q 2391 2844 1894 2844 
z
" transform="scale(0.015625)"/>
        <path id="SegoeUI-72" d="M 2188 2681 
Q 2053 2784 1800 2784 
Q 1472 2784 1251 2475 
Q 1031 2166 1031 1631 
L 1031 0 
L 519 0 
L 519 3200 
L 1031 3200 
L 1031 2541 
L 1044 2541 
Q 1153 2878 1378 3067 
Q 1603 3256 1881 3256 
Q 2081 3256 2188 3213 
L 2188 2681 
z
" transform="scale(0.015625)"/>
        <path id="SegoeUI-6d" d="M 5063 0 
L 4550 0 
L 4550 1838 
Q 4550 2369 4386 2606 
Q 4222 2844 3834 2844 
Q 3506 2844 3276 2544 
Q 3047 2244 3047 1825 
L 3047 0 
L 2534 0 
L 2534 1900 
Q 2534 2844 1806 2844 
Q 1469 2844 1250 2561 
Q 1031 2278 1031 1825 
L 1031 0 
L 519 0 
L 519 3200 
L 1031 3200 
L 1031 2694 
L 1044 2694 
Q 1384 3275 2038 3275 
Q 2366 3275 2609 3092 
Q 2853 2909 2944 2613 
Q 3300 3275 4006 3275 
Q 5063 3275 5063 1972 
L 5063 0 
z
" transform="scale(0.015625)"/>
        <path id="SegoeUI-61" d="M 2809 0 
L 2297 0 
L 2297 500 
L 2284 500 
Q 1950 -75 1300 -75 
Q 822 -75 551 178 
Q 281 431 281 850 
Q 281 1747 1338 1894 
L 2297 2028 
Q 2297 2844 1638 2844 
Q 1059 2844 594 2450 
L 594 2975 
Q 1066 3275 1681 3275 
Q 2809 3275 2809 2081 
L 2809 0 
z
M 2297 1619 
L 1525 1513 
Q 1169 1463 987 1336 
Q 806 1209 806 888 
Q 806 653 973 504 
Q 1141 356 1419 356 
Q 1800 356 2048 623 
Q 2297 891 2297 1300 
L 2297 1619 
z
" transform="scale(0.015625)"/>
        <path id="SegoeUI-6c" d="M 1031 0 
L 519 0 
L 519 4738 
L 1031 4738 
L 1031 0 
z
" transform="scale(0.015625)"/>
       </defs>
       <use xlink:href="#SegoeUI-4e"/>
       <use xlink:href="#SegoeUI-6f" transform="translate(74.804688 0)"/>
       <use xlink:href="#SegoeUI-72" transform="translate(133.398438 0)"/>
       <use xlink:href="#SegoeUI-6d" transform="translate(167.914062 0)"/>
       <use xlink:href="#SegoeUI-61" transform="translate(254.046875 0)"/>
       <use xlink:href="#SegoeUI-6c" transform="translate(304.925781 0)"/>
      </g>
     </g>
    </g>
    <g id="xtick_2">
     <g id="text_2">
      <!-- Modere -->
      <g style="fill: #262626" transform="translate(179.434607 314.175437) scale(0.11 -0.11)">
       <defs>
        <path id="SegoeUI-4d" d="M 5156 0 
L 4634 0 
L 4634 3006 
Q 4634 3363 4678 3878 
L 4666 3878 
Q 4591 3575 4531 3444 
L 3000 0 
L 2744 0 
L 1216 3419 
Q 1150 3569 1081 3878 
L 1069 3878 
Q 1094 3609 1094 3000 
L 1094 0 
L 588 0 
L 588 4481 
L 1281 4481 
L 2656 1356 
Q 2816 997 2863 819 
L 2881 819 
Q 3016 1188 3097 1369 
L 4500 4481 
L 5156 4481 
L 5156 0 
z
" transform="scale(0.015625)"/>
        <path id="SegoeUI-64" d="M 3250 0 
L 2738 0 
L 2738 544 
L 2725 544 
Q 2369 -75 1625 -75 
Q 1022 -75 661 354 
Q 300 784 300 1525 
Q 300 2319 700 2797 
Q 1100 3275 1766 3275 
Q 2425 3275 2725 2756 
L 2738 2756 
L 2738 4738 
L 3250 4738 
L 3250 0 
z
M 2738 1447 
L 2738 1919 
Q 2738 2306 2481 2575 
Q 2225 2844 1831 2844 
Q 1363 2844 1094 2500 
Q 825 2156 825 1550 
Q 825 997 1083 676 
Q 1341 356 1775 356 
Q 2203 356 2470 665 
Q 2738 975 2738 1447 
z
" transform="scale(0.015625)"/>
        <path id="SegoeUI-65" d="M 3091 1472 
L 831 1472 
Q 844 938 1119 647 
Q 1394 356 1875 356 
Q 2416 356 2869 713 
L 2869 231 
Q 2447 -75 1753 -75 
Q 1075 -75 687 361 
Q 300 797 300 1588 
Q 300 2334 723 2804 
Q 1147 3275 1775 3275 
Q 2403 3275 2747 2869 
Q 3091 2463 3091 1741 
L 3091 1472 
z
M 2566 1906 
Q 2563 2350 2352 2597 
Q 2141 2844 1766 2844 
Q 1403 2844 1150 2584 
Q 897 2325 838 1906 
L 2566 1906 
z
" transform="scale(0.015625)"/>
       </defs>
       <use xlink:href="#SegoeUI-4d"/>
       <use xlink:href="#SegoeUI-6f" transform="translate(89.794922 0)"/>
       <use xlink:href="#SegoeUI-64" transform="translate(148.388672 0)"/>
       <use xlink:href="#SegoeUI-65" transform="translate(207.275391 0)"/>
       <use xlink:href="#SegoeUI-72" transform="translate(259.570312 0)"/>
       <use xlink:href="#SegoeUI-65" transform="translate(292.960938 0)"/>
      </g>
     </g>
    </g>
    <g id="xtick_3">
     <g id="text_3">
      <!-- Dangereux -->
      <g style="fill: #262626" transform="translate(246.617049 314.117) scale(0.11 -0.11)">
       <defs>
        <path id="SegoeUI-44" d="M 588 0 
L 588 4481 
L 1825 4481 
Q 4194 4481 4194 2297 
Q 4194 1259 3536 629 
Q 2878 0 1775 0 
L 588 0 
z
M 1113 4006 
L 1113 475 
L 1781 475 
Q 2663 475 3153 947 
Q 3644 1419 3644 2284 
Q 3644 4006 1813 4006 
L 1113 4006 
z
" transform="scale(0.015625)"/>
        <path id="SegoeUI-6e" d="M 3175 0 
L 2663 0 
L 2663 1825 
Q 2663 2844 1919 2844 
Q 1534 2844 1282 2555 
Q 1031 2266 1031 1825 
L 1031 0 
L 519 0 
L 519 3200 
L 1031 3200 
L 1031 2669 
L 1044 2669 
Q 1406 3275 2094 3275 
Q 2619 3275 2897 2936 
Q 3175 2597 3175 1956 
L 3175 0 
z
" transform="scale(0.015625)"/>
        <path id="SegoeUI-67" d="M 3250 256 
Q 3250 -1506 1563 -1506 
Q 969 -1506 525 -1281 
L 525 -769 
Q 1066 -1069 1556 -1069 
Q 2738 -1069 2738 188 
L 2738 538 
L 2725 538 
Q 2359 -75 1625 -75 
Q 1028 -75 664 351 
Q 300 778 300 1497 
Q 300 2313 692 2794 
Q 1084 3275 1766 3275 
Q 2413 3275 2725 2756 
L 2738 2756 
L 2738 3200 
L 3250 3200 
L 3250 256 
z
M 2738 1447 
L 2738 1919 
Q 2738 2300 2480 2572 
Q 2222 2844 1838 2844 
Q 1363 2844 1094 2498 
Q 825 2153 825 1531 
Q 825 997 1083 676 
Q 1341 356 1766 356 
Q 2197 356 2467 662 
Q 2738 969 2738 1447 
z
" transform="scale(0.015625)"/>
        <path id="SegoeUI-75" d="M 3106 0 
L 2594 0 
L 2594 506 
L 2581 506 
Q 2263 -75 1594 -75 
Q 450 -75 450 1288 
L 450 3200 
L 959 3200 
L 959 1369 
Q 959 356 1734 356 
Q 2109 356 2351 632 
Q 2594 909 2594 1356 
L 2594 3200 
L 3106 3200 
L 3106 0 
z
" transform="scale(0.015625)"/>
        <path id="SegoeUI-78" d="M 2856 3200 
L 1781 1581 
L 2838 0 
L 2241 0 
L 1613 1038 
Q 1553 1134 1472 1281 
L 1459 1281 
Q 1444 1253 1313 1038 
L 672 0 
L 81 0 
L 1172 1569 
L 128 3200 
L 725 3200 
L 1344 2106 
Q 1413 1984 1478 1856 
L 1491 1856 
L 2291 3200 
L 2856 3200 
z
" transform="scale(0.015625)"/>
       </defs>
       <use xlink:href="#SegoeUI-44"/>
       <use xlink:href="#SegoeUI-61" transform="translate(70.117188 0)"/>
       <use xlink:href="#SegoeUI-6e" transform="translate(120.996094 0)"/>
       <use xlink:href="#SegoeUI-67" transform="translate(177.587891 0)"/>
       <use xlink:href="#SegoeUI-65" transform="translate(236.474609 0)"/>
       <use xlink:href="#SegoeUI-72" transform="translate(288.769531 0)"/>
       <use xlink:href="#SegoeUI-65" transform="translate(322.160156 0)"/>
       <use xlink:href="#SegoeUI-75" transform="translate(374.455078 0)"/>
       <use xlink:href="#SegoeUI-78" transform="translate(431.046875 0)"/>
      </g>
     </g>
    </g>
   </g>
   <g id="matplotlib.axis_2">
    <g id="ytick_1">
     <g id="line2d_1">
      <path d="M 83.808 296.532 
L 313.040432 296.532 
" clip-path="url(#p00989e12dc)" style="fill: none; stroke: #e6e8f0; stroke-width: 0.8; stroke-linecap: round"/>
     </g>
     <g id="text_4">
      <!-- 0.0 -->
      <g style="fill: #262626" transform="translate(60.063 300.603719) scale(0.11 -0.11)">
       <defs>
        <path id="SegoeUI-30" d="M 3188 2259 
Q 3188 1697 3086 1262 
Q 2984 828 2792 529 
Q 2600 231 2320 76 
Q 2041 -78 1684 -78 
Q 1347 -78 1083 70 
Q 819 219 637 503 
Q 456 788 362 1202 
Q 269 1616 269 2150 
Q 269 2738 367 3188 
Q 466 3638 656 3942 
Q 847 4247 1130 4401 
Q 1413 4556 1778 4556 
Q 3188 4556 3188 2259 
z
M 2663 2209 
Q 2663 4122 1753 4122 
Q 794 4122 794 2175 
Q 794 359 1734 359 
Q 2663 359 2663 2209 
z
" transform="scale(0.015625)"/>
        <path id="SegoeUI-2e" d="M 697 -69 
Q 553 -69 451 34 
Q 350 138 350 281 
Q 350 425 451 529 
Q 553 634 697 634 
Q 844 634 947 529 
Q 1050 425 1050 281 
Q 1050 138 947 34 
Q 844 -69 697 -69 
z
" transform="scale(0.015625)"/>
       </defs>
       <use xlink:href="#SegoeUI-30"/>
       <use xlink:href="#SegoeUI-2e" transform="translate(53.90625 0)"/>
       <use xlink:href="#SegoeUI-30" transform="translate(75.585938 0)"/>
      </g>
     </g>
    </g>
    <g id="ytick_2">
     <g id="line2d_2">
      <path d="M 83.808 253.990286 
L 313.040432 253.990286 
" clip-path="url(#p00989e12dc)" style="fill: none; stroke: #e6e8f0; stroke-width: 0.8; stroke-linecap: round"/>
     </g>
     <g id="text_5">
      <!-- 0.2 -->
      <g style="fill: #262626" transform="translate(60.063 258.062004) scale(0.11 -0.11)">
       <defs>
        <path id="SegoeUI-32" d="M 2413 3306 
Q 2413 3513 2348 3666 
Q 2284 3819 2173 3920 
Q 2063 4022 1913 4072 
Q 1763 4122 1588 4122 
Q 1438 4122 1294 4081 
Q 1150 4041 1014 3969 
Q 878 3897 751 3797 
Q 625 3697 516 3575 
L 516 4125 
Q 731 4334 998 4445 
Q 1266 4556 1650 4556 
Q 1925 4556 2159 4476 
Q 2394 4397 2566 4244 
Q 2738 4091 2836 3866 
Q 2934 3641 2934 3350 
Q 2934 3084 2873 2868 
Q 2813 2653 2689 2462 
Q 2566 2272 2378 2097 
Q 2191 1922 1938 1741 
Q 1622 1516 1417 1356 
Q 1213 1197 1092 1058 
Q 972 919 923 780 
Q 875 641 875 459 
L 3106 459 
L 3106 0 
L 341 0 
L 341 222 
Q 341 509 403 728 
Q 466 947 609 1144 
Q 753 1341 986 1537 
Q 1219 1734 1556 1981 
Q 1800 2156 1964 2315 
Q 2128 2475 2228 2634 
Q 2328 2794 2370 2958 
Q 2413 3122 2413 3306 
z
" transform="scale(0.015625)"/>
       </defs>
       <use xlink:href="#SegoeUI-30"/>
       <use xlink:href="#SegoeUI-2e" transform="translate(53.90625 0)"/>
       <use xlink:href="#SegoeUI-32" transform="translate(75.585938 0)"/>
      </g>
     </g>
    </g>
    <g id="ytick_3">
     <g id="line2d_3">
      <path d="M 83.808 211.448571 
L 313.040432 211.448571 
" clip-path="url(#p00989e12dc)" style="fill: none; stroke: #e6e8f0; stroke-width: 0.8; stroke-linecap: round"/>
     </g>
     <g id="text_6">
      <!-- 0.4 -->
      <g style="fill: #262626" transform="translate(60.063 215.52029) scale(0.11 -0.11)">
       <defs>
        <path id="SegoeUI-34" d="M 2656 4481 
L 2656 1522 
L 3231 1522 
L 3231 1053 
L 2656 1053 
L 2656 0 
L 2150 0 
L 2150 1053 
L 44 1053 
L 44 1497 
Q 338 1828 638 2204 
Q 938 2581 1211 2968 
Q 1484 3356 1717 3742 
Q 1950 4128 2109 4481 
L 2656 4481 
z
M 622 1522 
L 2150 1522 
L 2150 3716 
Q 1916 3306 1706 2984 
Q 1497 2663 1308 2400 
Q 1119 2138 947 1925 
Q 775 1713 622 1522 
z
" transform="scale(0.015625)"/>
       </defs>
       <use xlink:href="#SegoeUI-30"/>
       <use xlink:href="#SegoeUI-2e" transform="translate(53.90625 0)"/>
       <use xlink:href="#SegoeUI-34" transform="translate(75.585938 0)"/>
      </g>
     </g>
    </g>
    <g id="ytick_4">
     <g id="line2d_4">
      <path d="M 83.808 168.906857 
L 313.040432 168.906857 
" clip-path="url(#p00989e12dc)" style="fill: none; stroke: #e6e8f0; stroke-width: 0.8; stroke-linecap: round"/>
     </g>
     <g id="text_7">
      <!-- 0.6 -->
      <g style="fill: #262626" transform="translate(60.063 172.978576) scale(0.11 -0.11)">
       <defs>
        <path id="SegoeUI-36" d="M 3194 1422 
Q 3194 1094 3087 819 
Q 2981 544 2793 344 
Q 2606 144 2347 33 
Q 2088 -78 1784 -78 
Q 1447 -78 1180 62 
Q 913 203 727 467 
Q 541 731 444 1112 
Q 347 1494 347 1972 
Q 347 2556 476 3032 
Q 606 3509 845 3848 
Q 1084 4188 1421 4372 
Q 1759 4556 2175 4556 
Q 2638 4556 2919 4428 
L 2919 3944 
Q 2572 4122 2188 4122 
Q 1888 4122 1647 3987 
Q 1406 3853 1234 3608 
Q 1063 3363 970 3016 
Q 878 2669 878 2244 
L 891 2244 
Q 1200 2803 1913 2803 
Q 2206 2803 2442 2703 
Q 2678 2603 2845 2420 
Q 3013 2238 3103 1984 
Q 3194 1731 3194 1422 
z
M 2669 1356 
Q 2669 1591 2609 1778 
Q 2550 1966 2439 2097 
Q 2328 2228 2165 2298 
Q 2003 2369 1797 2369 
Q 1606 2369 1443 2297 
Q 1281 2225 1162 2101 
Q 1044 1978 976 1814 
Q 909 1650 909 1466 
Q 909 1234 975 1032 
Q 1041 831 1159 681 
Q 1278 531 1442 445 
Q 1606 359 1806 359 
Q 2000 359 2159 432 
Q 2319 506 2431 637 
Q 2544 769 2606 951 
Q 2669 1134 2669 1356 
z
" transform="scale(0.015625)"/>
       </defs>
       <use xlink:href="#SegoeUI-30"/>
       <use xlink:href="#SegoeUI-2e" transform="translate(53.90625 0)"/>
       <use xlink:href="#SegoeUI-36" transform="translate(75.585938 0)"/>
      </g>
     </g>
    </g>
    <g id="ytick_5">
     <g id="line2d_5">
      <path d="M 83.808 126.365143 
L 313.040432 126.365143 
" clip-path="url(#p00989e12dc)" style="fill: none; stroke: #e6e8f0; stroke-width: 0.8; stroke-linecap: round"/>
     </g>
     <g id="text_8">
      <!-- 0.8 -->
      <g style="fill: #262626" transform="translate(60.063 130.436862) scale(0.11 -0.11)">
       <defs>
        <path id="SegoeUI-38" d="M 281 1250 
Q 281 1428 337 1608 
Q 394 1788 498 1944 
Q 603 2100 758 2228 
Q 913 2356 1109 2431 
Q 819 2594 647 2848 
Q 475 3103 475 3413 
Q 475 3659 570 3868 
Q 666 4078 834 4231 
Q 1003 4384 1234 4470 
Q 1466 4556 1734 4556 
Q 2006 4556 2237 4468 
Q 2469 4381 2637 4228 
Q 2806 4075 2900 3865 
Q 2994 3656 2994 3413 
Q 2994 3103 2822 2848 
Q 2650 2594 2366 2431 
Q 2559 2356 2712 2228 
Q 2866 2100 2970 1944 
Q 3075 1788 3131 1608 
Q 3188 1428 3188 1250 
Q 3188 956 3081 712 
Q 2975 469 2783 295 
Q 2591 122 2323 25 
Q 2056 -72 1734 -72 
Q 1416 -72 1150 25 
Q 884 122 690 295 
Q 497 469 389 712 
Q 281 956 281 1250 
z
M 838 1294 
Q 838 1084 902 915 
Q 966 747 1083 628 
Q 1200 509 1367 445 
Q 1534 381 1738 381 
Q 1934 381 2100 447 
Q 2266 513 2386 631 
Q 2506 750 2573 919 
Q 2641 1088 2641 1294 
Q 2641 1481 2577 1645 
Q 2513 1809 2394 1934 
Q 2275 2059 2109 2131 
Q 1944 2203 1738 2203 
Q 1544 2203 1380 2136 
Q 1216 2069 1095 1948 
Q 975 1828 906 1661 
Q 838 1494 838 1294 
z
M 997 3372 
Q 997 3213 1055 3077 
Q 1113 2941 1214 2839 
Q 1316 2738 1450 2680 
Q 1584 2622 1738 2622 
Q 1891 2622 2027 2681 
Q 2163 2741 2263 2842 
Q 2363 2944 2422 3080 
Q 2481 3216 2481 3372 
Q 2481 3534 2423 3671 
Q 2366 3809 2266 3909 
Q 2166 4009 2030 4067 
Q 1894 4125 1738 4125 
Q 1572 4125 1436 4065 
Q 1300 4006 1201 3904 
Q 1103 3803 1050 3665 
Q 997 3528 997 3372 
z
" transform="scale(0.015625)"/>
       </defs>
       <use xlink:href="#SegoeUI-30"/>
       <use xlink:href="#SegoeUI-2e" transform="translate(53.90625 0)"/>
       <use xlink:href="#SegoeUI-38" transform="translate(75.585938 0)"/>
      </g>
     </g>
    </g>
    <g id="ytick_6">
     <g id="line2d_6">
      <path d="M 83.808 83.823429 
L 313.040432 83.823429 
" clip-path="url(#p00989e12dc)" style="fill: none; stroke: #e6e8f0; stroke-width: 0.8; stroke-linecap: round"/>
     </g>
     <g id="text_9">
      <!-- 1.0 -->
      <g style="fill: #262626" transform="translate(60.063 87.895147) scale(0.11 -0.11)">
       <defs>
        <path id="SegoeUI-31" d="M 2263 0 
L 1750 0 
L 1750 3872 
Q 1691 3813 1577 3736 
Q 1463 3659 1320 3584 
Q 1178 3509 1020 3443 
Q 863 3378 713 3341 
L 713 3859 
Q 881 3906 1070 3986 
Q 1259 4066 1442 4164 
Q 1625 4263 1787 4370 
Q 1950 4478 2069 4581 
L 2263 4581 
L 2263 0 
z
" transform="scale(0.015625)"/>
       </defs>
       <use xlink:href="#SegoeUI-31"/>
       <use xlink:href="#SegoeUI-2e" transform="translate(53.90625 0)"/>
       <use xlink:href="#SegoeUI-30" transform="translate(75.585938 0)"/>
      </g>
     </g>
    </g>
    <g id="text_10">
     <!-- AUC -->
     <g style="fill: #1f2430" transform="translate(53.303 196.485) rotate(-90) scale(0.12 -0.12)">
      <defs>
       <path id="SegoeUI-41" d="M 4056 0 
L 3475 0 
L 3000 1256 
L 1100 1256 
L 653 0 
L 69 0 
L 1788 4481 
L 2331 4481 
L 4056 0 
z
M 2828 1728 
L 2125 3638 
Q 2091 3731 2056 3938 
L 2044 3938 
Q 2013 3747 1972 3638 
L 1275 1728 
L 2828 1728 
z
" transform="scale(0.015625)"/>
       <path id="SegoeUI-55" d="M 3866 1813 
Q 3866 -75 2163 -75 
Q 531 -75 531 1741 
L 531 4481 
L 1056 4481 
L 1056 1775 
Q 1056 397 2219 397 
Q 3341 397 3341 1728 
L 3341 4481 
L 3866 4481 
L 3866 1813 
z
" transform="scale(0.015625)"/>
       <path id="SegoeUI-43" d="M 3638 188 
Q 3141 -75 2400 -75 
Q 1444 -75 869 540 
Q 294 1156 294 2156 
Q 294 3231 941 3893 
Q 1588 4556 2581 4556 
Q 3219 4556 3638 4372 
L 3638 3813 
Q 3156 4081 2575 4081 
Q 1803 4081 1323 3565 
Q 844 3050 844 2188 
Q 844 1369 1292 883 
Q 1741 397 2469 397 
Q 3144 397 3638 697 
L 3638 188 
z
" transform="scale(0.015625)"/>
      </defs>
      <use xlink:href="#SegoeUI-41"/>
      <use xlink:href="#SegoeUI-55" transform="translate(63.126953 0)"/>
      <use xlink:href="#SegoeUI-43" transform="translate(131.828125 0)"/>
     </g>
    </g>
   </g>
   <g id="patch_3">
    <path d="M 94.227656 296.532 
L 153.768548 296.532 
L 153.768548 83.823429 
L 94.227656 83.823429 
z
" clip-path="url(#p00989e12dc)" style="fill: #a3befa; stroke: #2e4780; stroke-linejoin: miter"/>
   </g>
   <g id="patch_4">
    <path d="M 168.65377 296.532 
L 228.194662 296.532 
L 228.194662 83.82343 
L 168.65377 83.82343 
z
" clip-path="url(#p00989e12dc)" style="fill: #ffe15b; stroke: #736422; stroke-linejoin: miter"/>
   </g>
   <g id="patch_5">
    <path d="M 243.079885 296.532 
L 302.620776 296.532 
L 302.620776 83.823429 
L 243.079885 83.823429 
z
" clip-path="url(#p00989e12dc)" style="fill: #f0986e; stroke: #804126; stroke-linejoin: miter"/>
   </g>
   <g id="patch_6">
    <path d="M 83.808 296.532 
L 83.808 73.188 
" style="fill: none; stroke: #d7dbe7; stroke-width: 1.25; stroke-linejoin: miter; stroke-linecap: square"/>
   </g>
   <g id="patch_7">
    <path d="M 83.808 296.532 
L 313.040432 296.532 
" style="fill: none; stroke: #d7dbe7; stroke-width: 1.25; stroke-linejoin: miter; stroke-linecap: square"/>
   </g>
   <g id="text_11">
    <!-- 1.000 -->
    <g style="fill: #262626" transform="translate(114.505602 79.569257) scale(0.08 -0.08)">
     <use xlink:href="#SegoeUI-31"/>
     <use xlink:href="#SegoeUI-2e" transform="translate(53.90625 0)"/>
     <use xlink:href="#SegoeUI-30" transform="translate(75.585938 0)"/>
     <use xlink:href="#SegoeUI-30" transform="translate(129.492188 0)"/>
     <use xlink:href="#SegoeUI-30" transform="translate(183.398438 0)"/>
    </g>
   </g>
   <g id="text_12">
    <!-- 1.000 -->
    <g style="fill: #262626" transform="translate(188.931716 79.569257) scale(0.08 -0.08)">
     <use xlink:href="#SegoeUI-31"/>
     <use xlink:href="#SegoeUI-2e" transform="translate(53.90625 0)"/>
     <use xlink:href="#SegoeUI-30" transform="translate(75.585938 0)"/>
     <use xlink:href="#SegoeUI-30" transform="translate(129.492188 0)"/>
     <use xlink:href="#SegoeUI-30" transform="translate(183.398438 0)"/>
    </g>
   </g>
   <g id="text_13">
    <!-- 1.000 -->
    <g style="fill: #262626" transform="translate(263.357831 79.569257) scale(0.08 -0.08)">
     <use xlink:href="#SegoeUI-31"/>
     <use xlink:href="#SegoeUI-2e" transform="translate(53.90625 0)"/>
     <use xlink:href="#SegoeUI-30" transform="translate(75.585938 0)"/>
     <use xlink:href="#SegoeUI-30" transform="translate(129.492188 0)"/>
     <use xlink:href="#SegoeUI-30" transform="translate(183.398438 0)"/>
    </g>
   </g>
   <g id="text_14">
    <!-- ROC AUC par classe -->
    <g style="fill: #1f2430" transform="translate(150.378279 67.188) scale(0.11 -0.11)">
     <defs>
      <path id="SegoeUI-52" d="M 3800 0 
L 3175 0 
L 2425 1256 
Q 2322 1431 2225 1554 
Q 2128 1678 2026 1756 
Q 1925 1834 1808 1870 
Q 1691 1906 1544 1906 
L 1113 1906 
L 1113 0 
L 588 0 
L 588 4481 
L 1925 4481 
Q 2219 4481 2467 4407 
Q 2716 4334 2898 4184 
Q 3081 4034 3184 3811 
Q 3288 3588 3288 3288 
Q 3288 3053 3217 2858 
Q 3147 2663 3017 2509 
Q 2888 2356 2705 2248 
Q 2522 2141 2294 2081 
L 2294 2069 
Q 2406 2019 2489 1955 
Q 2572 1891 2647 1803 
Q 2722 1716 2795 1605 
Q 2869 1494 2959 1347 
L 3800 0 
z
M 1113 4006 
L 1113 2381 
L 1825 2381 
Q 2022 2381 2189 2440 
Q 2356 2500 2478 2611 
Q 2600 2722 2669 2883 
Q 2738 3044 2738 3244 
Q 2738 3603 2505 3804 
Q 2272 4006 1831 4006 
L 1113 4006 
z
" transform="scale(0.015625)"/>
      <path id="SegoeUI-4f" d="M 2394 -75 
Q 1441 -75 867 553 
Q 294 1181 294 2188 
Q 294 3269 878 3912 
Q 1463 4556 2469 4556 
Q 3397 4556 3964 3931 
Q 4531 3306 4531 2297 
Q 4531 1200 3950 562 
Q 3369 -75 2394 -75 
z
M 2431 4081 
Q 1725 4081 1284 3572 
Q 844 3063 844 2234 
Q 844 1406 1273 901 
Q 1703 397 2394 397 
Q 3131 397 3556 878 
Q 3981 1359 3981 2225 
Q 3981 3113 3568 3597 
Q 3156 4081 2431 4081 
z
" transform="scale(0.015625)"/>
      <path id="SegoeUI-20" transform="scale(0.015625)"/>
      <path id="SegoeUI-70" d="M 1044 463 
L 1031 463 
L 1031 -1472 
L 519 -1472 
L 519 3200 
L 1031 3200 
L 1031 2638 
L 1044 2638 
Q 1422 3275 2150 3275 
Q 2769 3275 3116 2845 
Q 3463 2416 3463 1694 
Q 3463 891 3072 408 
Q 2681 -75 2003 -75 
Q 1381 -75 1044 463 
z
M 1031 1753 
L 1031 1306 
Q 1031 909 1289 632 
Q 1547 356 1944 356 
Q 2409 356 2673 712 
Q 2938 1069 2938 1703 
Q 2938 2238 2691 2541 
Q 2444 2844 2022 2844 
Q 1575 2844 1303 2533 
Q 1031 2222 1031 1753 
z
" transform="scale(0.015625)"/>
      <path id="SegoeUI-63" d="M 2700 147 
Q 2331 -75 1825 -75 
Q 1141 -75 720 370 
Q 300 816 300 1525 
Q 300 2316 753 2795 
Q 1206 3275 1963 3275 
Q 2384 3275 2706 3119 
L 2706 2594 
Q 2350 2844 1944 2844 
Q 1453 2844 1139 2492 
Q 825 2141 825 1569 
Q 825 1006 1120 681 
Q 1416 356 1913 356 
Q 2331 356 2700 634 
L 2700 147 
z
" transform="scale(0.015625)"/>
      <path id="SegoeUI-73" d="M 325 116 
L 325 666 
Q 744 356 1247 356 
Q 1922 356 1922 806 
Q 1922 934 1864 1023 
Q 1806 1113 1707 1181 
Q 1609 1250 1476 1304 
Q 1344 1359 1191 1419 
Q 978 1503 817 1589 
Q 656 1675 548 1783 
Q 441 1891 386 2028 
Q 331 2166 331 2350 
Q 331 2575 434 2748 
Q 538 2922 709 3039 
Q 881 3156 1101 3215 
Q 1322 3275 1556 3275 
Q 1972 3275 2300 3131 
L 2300 2613 
Q 1947 2844 1488 2844 
Q 1344 2844 1228 2811 
Q 1113 2778 1030 2718 
Q 947 2659 901 2576 
Q 856 2494 856 2394 
Q 856 2269 901 2184 
Q 947 2100 1034 2034 
Q 1122 1969 1247 1916 
Q 1372 1863 1531 1800 
Q 1744 1719 1912 1633 
Q 2081 1547 2200 1439 
Q 2319 1331 2383 1190 
Q 2447 1050 2447 856 
Q 2447 619 2342 444 
Q 2238 269 2063 153 
Q 1888 38 1659 -18 
Q 1431 -75 1181 -75 
Q 688 -75 325 116 
z
" transform="scale(0.015625)"/>
     </defs>
     <use xlink:href="#SegoeUI-52"/>
     <use xlink:href="#SegoeUI-4f" transform="translate(58.814453 0)"/>
     <use xlink:href="#SegoeUI-43" transform="translate(134.205078 0)"/>
     <use xlink:href="#SegoeUI-20" transform="translate(196.119141 0)"/>
     <use xlink:href="#SegoeUI-41" transform="translate(223.511719 0)"/>
     <use xlink:href="#SegoeUI-55" transform="translate(286.638672 0)"/>
     <use xlink:href="#SegoeUI-43" transform="translate(355.339844 0)"/>
     <use xlink:href="#SegoeUI-20" transform="translate(417.253906 0)"/>
     <use xlink:href="#SegoeUI-70" transform="translate(444.646484 0)"/>
     <use xlink:href="#SegoeUI-61" transform="translate(502.060547 0)"/>
     <use xlink:href="#SegoeUI-72" transform="translate(552.939453 0)"/>
     <use xlink:href="#SegoeUI-20" transform="translate(587.705078 0)"/>
     <use xlink:href="#SegoeUI-63" transform="translate(615.097656 0)"/>
     <use xlink:href="#SegoeUI-6c" transform="translate(661.289062 0)"/>
     <use xlink:href="#SegoeUI-61" transform="translate(685.507812 0)"/>
     <use xlink:href="#SegoeUI-73" transform="translate(736.386719 0)"/>
     <use xlink:href="#SegoeUI-73" transform="translate(778.818359 0)"/>
     <use xlink:href="#SegoeUI-65" transform="translate(821.25 0)"/>
    </g>
   </g>
  </g>
  <g id="axes_2">
   <g id="patch_8">
    <path d="M 393.271784 296.532 
L 622.504216 296.532 
L 622.504216 73.188 
L 393.271784 73.188 
z
" style="fill: #ffffff"/>
   </g>
   <g id="matplotlib.axis_3">
    <g id="xtick_4">
     <g id="text_15">
      <!-- Normal -->
      <g style="fill: #262626" transform="translate(415.358292 314.175437) scale(0.11 -0.11)">
       <use xlink:href="#SegoeUI-4e"/>
       <use xlink:href="#SegoeUI-6f" transform="translate(74.804688 0)"/>
       <use xlink:href="#SegoeUI-72" transform="translate(133.398438 0)"/>
       <use xlink:href="#SegoeUI-6d" transform="translate(167.914062 0)"/>
       <use xlink:href="#SegoeUI-61" transform="translate(254.046875 0)"/>
       <use xlink:href="#SegoeUI-6c" transform="translate(304.925781 0)"/>
      </g>
     </g>
    </g>
    <g id="xtick_5">
     <g id="text_16">
      <!-- Modere -->
      <g style="fill: #262626" transform="translate(488.898391 314.175437) scale(0.11 -0.11)">
       <use xlink:href="#SegoeUI-4d"/>
       <use xlink:href="#SegoeUI-6f" transform="translate(89.794922 0)"/>
       <use xlink:href="#SegoeUI-64" transform="translate(148.388672 0)"/>
       <use xlink:href="#SegoeUI-65" transform="translate(207.275391 0)"/>
       <use xlink:href="#SegoeUI-72" transform="translate(259.570312 0)"/>
       <use xlink:href="#SegoeUI-65" transform="translate(292.960938 0)"/>
      </g>
     </g>
    </g>
    <g id="xtick_6">
     <g id="text_17">
      <!-- Dangereux -->
      <g style="fill: #262626" transform="translate(556.080833 314.117) scale(0.11 -0.11)">
       <use xlink:href="#SegoeUI-44"/>
       <use xlink:href="#SegoeUI-61" transform="translate(70.117188 0)"/>
       <use xlink:href="#SegoeUI-6e" transform="translate(120.996094 0)"/>
       <use xlink:href="#SegoeUI-67" transform="translate(177.587891 0)"/>
       <use xlink:href="#SegoeUI-65" transform="translate(236.474609 0)"/>
       <use xlink:href="#SegoeUI-72" transform="translate(288.769531 0)"/>
       <use xlink:href="#SegoeUI-65" transform="translate(322.160156 0)"/>
       <use xlink:href="#SegoeUI-75" transform="translate(374.455078 0)"/>
       <use xlink:href="#SegoeUI-78" transform="translate(431.046875 0)"/>
      </g>
     </g>
    </g>
   </g>
   <g id="matplotlib.axis_4">
    <g id="ytick_7">
     <g id="line2d_7">
      <path d="M 393.271784 296.532 
L 622.504216 296.532 
" clip-path="url(#p0a97bb141b)" style="fill: none; stroke: #e6e8f0; stroke-width: 0.8; stroke-linecap: round"/>
     </g>
     <g id="text_18">
      <!-- 0.0 -->
      <g style="fill: #262626" transform="translate(369.526784 300.603719) scale(0.11 -0.11)">
       <use xlink:href="#SegoeUI-30"/>
       <use xlink:href="#SegoeUI-2e" transform="translate(53.90625 0)"/>
       <use xlink:href="#SegoeUI-30" transform="translate(75.585938 0)"/>
      </g>
     </g>
    </g>
    <g id="ytick_8">
     <g id="line2d_8">
      <path d="M 393.271784 253.990286 
L 622.504216 253.990286 
" clip-path="url(#p0a97bb141b)" style="fill: none; stroke: #e6e8f0; stroke-width: 0.8; stroke-linecap: round"/>
     </g>
     <g id="text_19">
      <!-- 0.2 -->
      <g style="fill: #262626" transform="translate(369.526784 258.062004) scale(0.11 -0.11)">
       <use xlink:href="#SegoeUI-30"/>
       <use xlink:href="#SegoeUI-2e" transform="translate(53.90625 0)"/>
       <use xlink:href="#SegoeUI-32" transform="translate(75.585938 0)"/>
      </g>
     </g>
    </g>
    <g id="ytick_9">
     <g id="line2d_9">
      <path d="M 393.271784 211.448571 
L 622.504216 211.448571 
" clip-path="url(#p0a97bb141b)" style="fill: none; stroke: #e6e8f0; stroke-width: 0.8; stroke-linecap: round"/>
     </g>
     <g id="text_20">
      <!-- 0.4 -->
      <g style="fill: #262626" transform="translate(369.526784 215.52029) scale(0.11 -0.11)">
       <use xlink:href="#SegoeUI-30"/>
       <use xlink:href="#SegoeUI-2e" transform="translate(53.90625 0)"/>
       <use xlink:href="#SegoeUI-34" transform="translate(75.585938 0)"/>
      </g>
     </g>
    </g>
    <g id="ytick_10">
     <g id="line2d_10">
      <path d="M 393.271784 168.906857 
L 622.504216 168.906857 
" clip-path="url(#p0a97bb141b)" style="fill: none; stroke: #e6e8f0; stroke-width: 0.8; stroke-linecap: round"/>
     </g>
     <g id="text_21">
      <!-- 0.6 -->
      <g style="fill: #262626" transform="translate(369.526784 172.978576) scale(0.11 -0.11)">
       <use xlink:href="#SegoeUI-30"/>
       <use xlink:href="#SegoeUI-2e" transform="translate(53.90625 0)"/>
       <use xlink:href="#SegoeUI-36" transform="translate(75.585938 0)"/>
      </g>
     </g>
    </g>
    <g id="ytick_11">
     <g id="line2d_11">
      <path d="M 393.271784 126.365143 
L 622.504216 126.365143 
" clip-path="url(#p0a97bb141b)" style="fill: none; stroke: #e6e8f0; stroke-width: 0.8; stroke-linecap: round"/>
     </g>
     <g id="text_22">
      <!-- 0.8 -->
      <g style="fill: #262626" transform="translate(369.526784 130.436862) scale(0.11 -0.11)">
       <use xlink:href="#SegoeUI-30"/>
       <use xlink:href="#SegoeUI-2e" transform="translate(53.90625 0)"/>
       <use xlink:href="#SegoeUI-38" transform="translate(75.585938 0)"/>
      </g>
     </g>
    </g>
    <g id="ytick_12">
     <g id="line2d_12">
      <path d="M 393.271784 83.823429 
L 622.504216 83.823429 
" clip-path="url(#p0a97bb141b)" style="fill: none; stroke: #e6e8f0; stroke-width: 0.8; stroke-linecap: round"/>
     </g>
     <g id="text_23">
      <!-- 1.0 -->
      <g style="fill: #262626" transform="translate(369.526784 87.895147) scale(0.11 -0.11)">
       <use xlink:href="#SegoeUI-31"/>
       <use xlink:href="#SegoeUI-2e" transform="translate(53.90625 0)"/>
       <use xlink:href="#SegoeUI-30" transform="translate(75.585938 0)"/>
      </g>
     </g>
    </g>
    <g id="text_24">
     <!-- F1-score -->
     <g style="fill: #1f2430" transform="translate(362.766784 207.3975) rotate(-90) scale(0.12 -0.12)">
      <defs>
       <path id="SegoeUI-46" d="M 2863 4006 
L 1113 4006 
L 1113 2456 
L 2731 2456 
L 2731 1984 
L 1113 1984 
L 1113 0 
L 588 0 
L 588 4481 
L 2863 4481 
L 2863 4006 
z
" transform="scale(0.015625)"/>
       <path id="SegoeUI-2d" d="M 2156 1581 
L 450 1581 
L 450 1984 
L 2156 1984 
L 2156 1581 
z
" transform="scale(0.015625)"/>
      </defs>
      <use xlink:href="#SegoeUI-46"/>
      <use xlink:href="#SegoeUI-31" transform="translate(48.828125 0)"/>
      <use xlink:href="#SegoeUI-2d" transform="translate(102.734375 0)"/>
      <use xlink:href="#SegoeUI-73" transform="translate(142.724609 0)"/>
      <use xlink:href="#SegoeUI-63" transform="translate(185.15625 0)"/>
      <use xlink:href="#SegoeUI-6f" transform="translate(231.347656 0)"/>
      <use xlink:href="#SegoeUI-72" transform="translate(289.941406 0)"/>
      <use xlink:href="#SegoeUI-65" transform="translate(323.332031 0)"/>
     </g>
    </g>
   </g>
   <g id="patch_9">
    <path d="M 403.69144 296.532 
L 463.232331 296.532 
L 463.232331 83.823429 
L 403.69144 83.823429 
z
" clip-path="url(#p0a97bb141b)" style="fill: #a3befa; stroke: #2e4780; stroke-linejoin: miter"/>
   </g>
   <g id="patch_10">
    <path d="M 478.117554 296.532 
L 537.658446 296.532 
L 537.658446 83.848409 
L 478.117554 83.848409 
z
" clip-path="url(#p0a97bb141b)" style="fill: #ffe15b; stroke: #736422; stroke-linejoin: miter"/>
   </g>
   <g id="patch_11">
    <path d="M 552.543669 296.532 
L 612.08456 296.532 
L 612.08456 83.881625 
L 552.543669 83.881625 
z
" clip-path="url(#p0a97bb141b)" style="fill: #f0986e; stroke: #804126; stroke-linejoin: miter"/>
   </g>
   <g id="patch_12">
    <path d="M 393.271784 296.532 
L 393.271784 73.188 
" style="fill: none; stroke: #d7dbe7; stroke-width: 1.25; stroke-linejoin: miter; stroke-linecap: square"/>
   </g>
   <g id="patch_13">
    <path d="M 393.271784 296.532 
L 622.504216 296.532 
" style="fill: none; stroke: #d7dbe7; stroke-width: 1.25; stroke-linejoin: miter; stroke-linecap: square"/>
   </g>
   <g id="text_25">
    <!-- 1.000 -->
    <g style="fill: #262626" transform="translate(423.969386 79.569257) scale(0.08 -0.08)">
     <use xlink:href="#SegoeUI-31"/>
     <use xlink:href="#SegoeUI-2e" transform="translate(53.90625 0)"/>
     <use xlink:href="#SegoeUI-30" transform="translate(75.585938 0)"/>
     <use xlink:href="#SegoeUI-30" transform="translate(129.492188 0)"/>
     <use xlink:href="#SegoeUI-30" transform="translate(183.398438 0)"/>
    </g>
   </g>
   <g id="text_26">
    <!-- 1.000 -->
    <g style="fill: #262626" transform="translate(498.3955 79.569257) scale(0.08 -0.08)">
     <use xlink:href="#SegoeUI-31"/>
     <use xlink:href="#SegoeUI-2e" transform="translate(53.90625 0)"/>
     <use xlink:href="#SegoeUI-30" transform="translate(75.585938 0)"/>
     <use xlink:href="#SegoeUI-30" transform="translate(129.492188 0)"/>
     <use xlink:href="#SegoeUI-30" transform="translate(183.398438 0)"/>
    </g>
   </g>
   <g id="text_27">
    <!-- 1.000 -->
    <g style="fill: #262626" transform="translate(572.821614 79.569257) scale(0.08 -0.08)">
     <use xlink:href="#SegoeUI-31"/>
     <use xlink:href="#SegoeUI-2e" transform="translate(53.90625 0)"/>
     <use xlink:href="#SegoeUI-30" transform="translate(75.585938 0)"/>
     <use xlink:href="#SegoeUI-30" transform="translate(129.492188 0)"/>
     <use xlink:href="#SegoeUI-30" transform="translate(183.398438 0)"/>
    </g>
   </g>
   <g id="text_28">
    <!-- F1 macro = 1.000 -->
    <g style="fill: #1f2430" transform="translate(465.768312 67.188) scale(0.11 -0.11)">
     <defs>
      <path id="SegoeUI-3d" d="M 3663 2325 
L 725 2325 
L 725 2738 
L 3663 2738 
L 3663 2325 
z
M 3663 994 
L 725 994 
L 725 1406 
L 3663 1406 
L 3663 994 
z
" transform="scale(0.015625)"/>
     </defs>
     <use xlink:href="#SegoeUI-46"/>
     <use xlink:href="#SegoeUI-31" transform="translate(48.828125 0)"/>
     <use xlink:href="#SegoeUI-20" transform="translate(102.734375 0)"/>
     <use xlink:href="#SegoeUI-6d" transform="translate(130.126953 0)"/>
     <use xlink:href="#SegoeUI-61" transform="translate(216.259766 0)"/>
     <use xlink:href="#SegoeUI-63" transform="translate(267.138672 0)"/>
     <use xlink:href="#SegoeUI-72" transform="translate(313.330078 0)"/>
     <use xlink:href="#SegoeUI-6f" transform="translate(346.720703 0)"/>
     <use xlink:href="#SegoeUI-20" transform="translate(405.314453 0)"/>
     <use xlink:href="#SegoeUI-3d" transform="translate(432.707031 0)"/>
     <use xlink:href="#SegoeUI-20" transform="translate(501.115234 0)"/>
     <use xlink:href="#SegoeUI-31" transform="translate(528.507812 0)"/>
     <use xlink:href="#SegoeUI-2e" transform="translate(582.414062 0)"/>
     <use xlink:href="#SegoeUI-30" transform="translate(604.09375 0)"/>
     <use xlink:href="#SegoeUI-30" transform="translate(658 0)"/>
     <use xlink:href="#SegoeUI-30" transform="translate(711.90625 0)"/>
    </g>
   </g>
  </g>
  <g id="axes_3">
   <g id="patch_14">
    <path d="M 702.735568 296.532 
L 931.968 296.532 
L 931.968 73.188 
L 702.735568 73.188 
z
" style="fill: #ffffff"/>
   </g>
   <g id="matplotlib.axis_5">
    <g id="xtick_7">
     <g id="text_29">
      <!-- LSTM -->
      <g style="fill: #262626" transform="translate(804.020299 314.175437) scale(0.11 -0.11)">
       <defs>
        <path id="SegoeUI-4c" d="M 2913 0 
L 588 0 
L 588 4481 
L 1113 4481 
L 1113 475 
L 2913 475 
L 2913 0 
z
" transform="scale(0.015625)"/>
        <path id="SegoeUI-53" d="M 378 181 
L 378 800 
Q 484 706 632 631 
Q 781 556 945 504 
Q 1109 453 1275 425 
Q 1441 397 1581 397 
Q 2066 397 2305 576 
Q 2544 756 2544 1094 
Q 2544 1275 2464 1409 
Q 2384 1544 2243 1655 
Q 2103 1766 1911 1867 
Q 1719 1969 1497 2081 
Q 1263 2200 1059 2322 
Q 856 2444 706 2591 
Q 556 2738 470 2923 
Q 384 3109 384 3359 
Q 384 3666 518 3892 
Q 653 4119 872 4266 
Q 1091 4413 1370 4484 
Q 1650 4556 1941 4556 
Q 2603 4556 2906 4397 
L 2906 3806 
Q 2509 4081 1888 4081 
Q 1716 4081 1544 4045 
Q 1372 4009 1237 3928 
Q 1103 3847 1018 3719 
Q 934 3591 934 3406 
Q 934 3234 998 3109 
Q 1063 2984 1188 2881 
Q 1313 2778 1492 2681 
Q 1672 2584 1906 2469 
Q 2147 2350 2362 2219 
Q 2578 2088 2740 1928 
Q 2903 1769 2998 1575 
Q 3094 1381 3094 1131 
Q 3094 800 2964 570 
Q 2834 341 2614 197 
Q 2394 53 2106 -11 
Q 1819 -75 1500 -75 
Q 1394 -75 1237 -58 
Q 1081 -41 918 -8 
Q 756 25 611 73 
Q 466 122 378 181 
z
" transform="scale(0.015625)"/>
        <path id="SegoeUI-54" d="M 3238 4006 
L 1944 4006 
L 1944 0 
L 1419 0 
L 1419 4006 
L 128 4006 
L 128 4481 
L 3238 4481 
L 3238 4006 
z
" transform="scale(0.015625)"/>
       </defs>
       <use xlink:href="#SegoeUI-4c"/>
       <use xlink:href="#SegoeUI-53" transform="translate(47.070312 0)"/>
       <use xlink:href="#SegoeUI-54" transform="translate(100.195312 0)"/>
       <use xlink:href="#SegoeUI-4d" transform="translate(152.587891 0)"/>
      </g>
     </g>
    </g>
   </g>
   <g id="matplotlib.axis_6">
    <g id="ytick_13">
     <g id="line2d_13">
      <path d="M 702.735568 286.38 
L 931.968 286.38 
" clip-path="url(#p0e53024c05)" style="fill: none; stroke: #e6e8f0; stroke-width: 0.8; stroke-linecap: round"/>
     </g>
     <g id="text_30">
      <!-- 0.0 -->
      <g style="fill: #262626" transform="translate(678.990568 290.451719) scale(0.11 -0.11)">
       <use xlink:href="#SegoeUI-30"/>
       <use xlink:href="#SegoeUI-2e" transform="translate(53.90625 0)"/>
       <use xlink:href="#SegoeUI-30" transform="translate(75.585938 0)"/>
      </g>
     </g>
    </g>
    <g id="ytick_14">
     <g id="line2d_14">
      <path d="M 702.735568 245.772 
L 931.968 245.772 
" clip-path="url(#p0e53024c05)" style="fill: none; stroke: #e6e8f0; stroke-width: 0.8; stroke-linecap: round"/>
     </g>
     <g id="text_31">
      <!-- 0.2 -->
      <g style="fill: #262626" transform="translate(678.990568 249.843719) scale(0.11 -0.11)">
       <use xlink:href="#SegoeUI-30"/>
       <use xlink:href="#SegoeUI-2e" transform="translate(53.90625 0)"/>
       <use xlink:href="#SegoeUI-32" transform="translate(75.585938 0)"/>
      </g>
     </g>
    </g>
    <g id="ytick_15">
     <g id="line2d_15">
      <path d="M 702.735568 205.164 
L 931.968 205.164 
" clip-path="url(#p0e53024c05)" style="fill: none; stroke: #e6e8f0; stroke-width: 0.8; stroke-linecap: round"/>
     </g>
     <g id="text_32">
      <!-- 0.4 -->
      <g style="fill: #262626" transform="translate(678.990568 209.235719) scale(0.11 -0.11)">
       <use xlink:href="#SegoeUI-30"/>
       <use xlink:href="#SegoeUI-2e" transform="translate(53.90625 0)"/>
       <use xlink:href="#SegoeUI-34" transform="translate(75.585938 0)"/>
      </g>
     </g>
    </g>
    <g id="ytick_16">
     <g id="line2d_16">
      <path d="M 702.735568 164.556 
L 931.968 164.556 
" clip-path="url(#p0e53024c05)" style="fill: none; stroke: #e6e8f0; stroke-width: 0.8; stroke-linecap: round"/>
     </g>
     <g id="text_33">
      <!-- 0.6 -->
      <g style="fill: #262626" transform="translate(678.990568 168.627719) scale(0.11 -0.11)">
       <use xlink:href="#SegoeUI-30"/>
       <use xlink:href="#SegoeUI-2e" transform="translate(53.90625 0)"/>
       <use xlink:href="#SegoeUI-36" transform="translate(75.585938 0)"/>
      </g>
     </g>
    </g>
    <g id="ytick_17">
     <g id="line2d_17">
      <path d="M 702.735568 123.948 
L 931.968 123.948 
" clip-path="url(#p0e53024c05)" style="fill: none; stroke: #e6e8f0; stroke-width: 0.8; stroke-linecap: round"/>
     </g>
     <g id="text_34">
      <!-- 0.8 -->
      <g style="fill: #262626" transform="translate(678.990568 128.019719) scale(0.11 -0.11)">
       <use xlink:href="#SegoeUI-30"/>
       <use xlink:href="#SegoeUI-2e" transform="translate(53.90625 0)"/>
       <use xlink:href="#SegoeUI-38" transform="translate(75.585938 0)"/>
      </g>
     </g>
    </g>
    <g id="ytick_18">
     <g id="line2d_18">
      <path d="M 702.735568 83.34 
L 931.968 83.34 
" clip-path="url(#p0e53024c05)" style="fill: none; stroke: #e6e8f0; stroke-width: 0.8; stroke-linecap: round"/>
     </g>
     <g id="text_35">
      <!-- 1.0 -->
      <g style="fill: #262626" transform="translate(678.990568 87.411719) scale(0.11 -0.11)">
       <use xlink:href="#SegoeUI-31"/>
       <use xlink:href="#SegoeUI-2e" transform="translate(53.90625 0)"/>
       <use xlink:href="#SegoeUI-30" transform="translate(75.585938 0)"/>
      </g>
     </g>
    </g>
    <g id="text_36">
     <!-- R2 -->
     <g style="fill: #1f2430" transform="translate(672.230568 191.683125) rotate(-90) scale(0.12 -0.12)">
      <use xlink:href="#SegoeUI-52"/>
      <use xlink:href="#SegoeUI-32" transform="translate(59.814453 0)"/>
     </g>
    </g>
   </g>
   <g id="patch_15">
    <path d="M 713.155224 286.38 
L 921.548344 286.38 
L 921.548344 248.643305 
L 713.155224 248.643305 
z
" clip-path="url(#p0e53024c05)" style="fill: #a3befa; stroke: #2e4780; stroke-linejoin: miter"/>
   </g>
   <g id="line2d_19">
    <path d="M 702.735568 286.38 
L 931.968 286.38 
" clip-path="url(#p0e53024c05)" style="fill: none; stroke: #1f2430; stroke-linecap: round"/>
   </g>
   <g id="line2d_20">
    <path d="M 702.735568 123.948 
L 931.968 123.948 
" clip-path="url(#p0e53024c05)" style="fill: none; stroke-dasharray: 1,1.65; stroke-dashoffset: 0; stroke: #386411"/>
   </g>
   <g id="patch_16">
    <path d="M 702.735568 296.532 
L 702.735568 73.188 
" style="fill: none; stroke: #d7dbe7; stroke-width: 1.25; stroke-linejoin: miter; stroke-linecap: square"/>
   </g>
   <g id="patch_17">
    <path d="M 702.735568 296.532 
L 931.968 296.532 
" style="fill: none; stroke: #d7dbe7; stroke-width: 1.25; stroke-linejoin: miter; stroke-linecap: square"/>
   </g>
   <g id="text_37">
    <!-- 0.186 -->
    <g style="fill: #262626" transform="translate(806.672721 242.552105) scale(0.09 -0.09)">
     <use xlink:href="#SegoeUI-30"/>
     <use xlink:href="#SegoeUI-2e" transform="translate(53.90625 0)"/>
     <use xlink:href="#SegoeUI-31" transform="translate(75.585938 0)"/>
     <use xlink:href="#SegoeUI-38" transform="translate(129.492188 0)"/>
     <use xlink:href="#SegoeUI-36" transform="translate(183.398438 0)"/>
    </g>
   </g>
   <g id="text_38">
    <!-- R2 LSTM officiel = 0.186 -->
    <g style="fill: #1f2430" transform="translate(758.943503 67.188) scale(0.11 -0.11)">
     <defs>
      <path id="SegoeUI-66" d="M 2100 4288 
Q 1950 4372 1759 4372 
Q 1222 4372 1222 3694 
L 1222 3200 
L 1972 3200 
L 1972 2763 
L 1222 2763 
L 1222 0 
L 713 0 
L 713 2763 
L 166 2763 
L 166 3200 
L 713 3200 
L 713 3719 
Q 713 4222 1003 4514 
Q 1294 4806 1728 4806 
Q 1963 4806 2100 4750 
L 2100 4288 
z
" transform="scale(0.015625)"/>
      <path id="SegoeUI-69" d="M 781 4013 
Q 644 4013 547 4106 
Q 450 4200 450 4344 
Q 450 4488 547 4583 
Q 644 4678 781 4678 
Q 922 4678 1020 4583 
Q 1119 4488 1119 4344 
Q 1119 4206 1020 4109 
Q 922 4013 781 4013 
z
M 1031 0 
L 519 0 
L 519 3200 
L 1031 3200 
L 1031 0 
z
" transform="scale(0.015625)"/>
     </defs>
     <use xlink:href="#SegoeUI-52"/>
     <use xlink:href="#SegoeUI-32" transform="translate(59.814453 0)"/>
     <use xlink:href="#SegoeUI-20" transform="translate(113.720703 0)"/>
     <use xlink:href="#SegoeUI-4c" transform="translate(141.113281 0)"/>
     <use xlink:href="#SegoeUI-53" transform="translate(188.183594 0)"/>
     <use xlink:href="#SegoeUI-54" transform="translate(241.308594 0)"/>
     <use xlink:href="#SegoeUI-4d" transform="translate(293.701172 0)"/>
     <use xlink:href="#SegoeUI-20" transform="translate(383.496094 0)"/>
     <use xlink:href="#SegoeUI-6f" transform="translate(410.888672 0)"/>
     <use xlink:href="#SegoeUI-66" transform="translate(467.732422 0)"/>
     <use xlink:href="#SegoeUI-66" transform="translate(499.03125 0)"/>
     <use xlink:href="#SegoeUI-69" transform="translate(530.330078 0)"/>
     <use xlink:href="#SegoeUI-63" transform="translate(554.548828 0)"/>
     <use xlink:href="#SegoeUI-69" transform="translate(600.740234 0)"/>
     <use xlink:href="#SegoeUI-65" transform="translate(624.958984 0)"/>
     <use xlink:href="#SegoeUI-6c" transform="translate(677.253906 0)"/>
     <use xlink:href="#SegoeUI-20" transform="translate(701.472656 0)"/>
     <use xlink:href="#SegoeUI-3d" transform="translate(728.865234 0)"/>
     <use xlink:href="#SegoeUI-20" transform="translate(797.273438 0)"/>
     <use xlink:href="#SegoeUI-30" transform="translate(824.666016 0)"/>
     <use xlink:href="#SegoeUI-2e" transform="translate(878.572266 0)"/>
     <use xlink:href="#SegoeUI-31" transform="translate(900.251953 0)"/>
     <use xlink:href="#SegoeUI-38" transform="translate(954.158203 0)"/>
     <use xlink:href="#SegoeUI-36" transform="translate(1008.064453 0)"/>
    </g>
   </g>
  </g>
  <g id="text_39">
   <!-- Synthese officielle ROC, F1 et R2 du modele H2S -->
   <g style="fill: #1f2430" transform="translate(7.2 18.471094) scale(0.15 -0.15)">
    <defs>
     <path id="SegoeUI-Semibold-53" d="M 347 178 
L 347 944 
Q 450 850 592 775 
Q 734 700 893 648 
Q 1053 597 1212 569 
Q 1372 541 1506 541 
Q 1975 541 2204 697 
Q 2434 853 2434 1150 
Q 2434 1309 2357 1426 
Q 2281 1544 2143 1641 
Q 2006 1738 1820 1827 
Q 1634 1916 1422 2013 
Q 1194 2134 997 2259 
Q 800 2384 654 2536 
Q 509 2688 426 2878 
Q 344 3069 344 3325 
Q 344 3641 486 3873 
Q 628 4106 861 4257 
Q 1094 4409 1391 4482 
Q 1688 4556 1997 4556 
Q 2700 4556 3022 4397 
L 3022 3663 
Q 2641 3938 2041 3938 
Q 1875 3938 1711 3906 
Q 1547 3875 1417 3803 
Q 1288 3731 1206 3618 
Q 1125 3506 1125 3347 
Q 1125 3197 1187 3087 
Q 1250 2978 1370 2887 
Q 1491 2797 1664 2711 
Q 1838 2625 2066 2525 
Q 2300 2403 2508 2268 
Q 2716 2134 2873 1971 
Q 3031 1809 3123 1611 
Q 3216 1413 3216 1159 
Q 3216 819 3078 584 
Q 2941 350 2708 203 
Q 2475 56 2172 -9 
Q 1869 -75 1531 -75 
Q 1419 -75 1255 -58 
Q 1091 -41 919 -8 
Q 747 25 594 72 
Q 441 119 347 178 
z
" transform="scale(0.015625)"/>
     <path id="SegoeUI-Semibold-79" d="M 3244 3200 
L 1800 -513 
Q 1350 -1506 538 -1506 
Q 309 -1506 156 -1466 
L 156 -863 
Q 328 -919 469 -919 
Q 875 -919 1075 -519 
L 1291 6 
L 19 3200 
L 822 3200 
L 1584 875 
Q 1597 831 1641 644 
L 1656 644 
Q 1672 716 1713 869 
L 2513 3200 
L 3244 3200 
z
" transform="scale(0.015625)"/>
     <path id="SegoeUI-Semibold-6e" d="M 3322 0 
L 2597 0 
L 2597 1803 
Q 2597 2700 1963 2700 
Q 1631 2700 1415 2451 
Q 1200 2203 1200 1825 
L 1200 0 
L 472 0 
L 472 3200 
L 1200 3200 
L 1200 2669 
L 1213 2669 
Q 1572 3275 2250 3275 
Q 2772 3275 3047 2936 
Q 3322 2597 3322 1956 
L 3322 0 
z
" transform="scale(0.015625)"/>
     <path id="SegoeUI-Semibold-74" d="M 2159 34 
Q 1947 -72 1600 -72 
Q 669 -72 669 822 
L 669 2631 
L 134 2631 
L 134 3200 
L 669 3200 
L 669 3941 
L 1394 4147 
L 1394 3200 
L 2159 3200 
L 2159 2631 
L 1394 2631 
L 1394 1031 
Q 1394 747 1497 625 
Q 1600 503 1841 503 
Q 2025 503 2159 609 
L 2159 34 
z
" transform="scale(0.015625)"/>
     <path id="SegoeUI-Semibold-68" d="M 3316 0 
L 2591 0 
L 2591 1750 
Q 2591 2700 1956 2700 
Q 1638 2700 1419 2425 
Q 1200 2150 1200 1722 
L 1200 0 
L 472 0 
L 472 4738 
L 1200 4738 
L 1200 2669 
L 1213 2669 
Q 1575 3275 2250 3275 
Q 3316 3275 3316 1972 
L 3316 0 
z
" transform="scale(0.015625)"/>
     <path id="SegoeUI-Semibold-65" d="M 3181 1403 
L 1000 1403 
Q 1013 959 1273 718 
Q 1534 478 1991 478 
Q 2503 478 2931 784 
L 2931 200 
Q 2494 -75 1775 -75 
Q 1069 -75 667 361 
Q 266 797 266 1588 
Q 266 2334 708 2804 
Q 1150 3275 1806 3275 
Q 2463 3275 2822 2853 
Q 3181 2431 3181 1681 
L 3181 1403 
z
M 2481 1916 
Q 2478 2306 2297 2523 
Q 2116 2741 1797 2741 
Q 1484 2741 1267 2512 
Q 1050 2284 1000 1916 
L 2481 1916 
z
" transform="scale(0.015625)"/>
     <path id="SegoeUI-Semibold-73" d="M 272 100 
L 272 772 
Q 678 463 1169 463 
Q 1825 463 1825 850 
Q 1825 959 1769 1036 
Q 1713 1113 1617 1172 
Q 1522 1231 1392 1278 
Q 1263 1325 1103 1384 
Q 906 1463 748 1550 
Q 591 1638 486 1748 
Q 381 1859 328 2000 
Q 275 2141 275 2328 
Q 275 2559 384 2736 
Q 494 2913 678 3033 
Q 863 3153 1097 3214 
Q 1331 3275 1581 3275 
Q 2025 3275 2375 3141 
L 2375 2506 
Q 2038 2738 1600 2738 
Q 1463 2738 1352 2709 
Q 1241 2681 1162 2631 
Q 1084 2581 1040 2511 
Q 997 2441 997 2356 
Q 997 2253 1040 2181 
Q 1084 2109 1170 2054 
Q 1256 2000 1376 1954 
Q 1497 1909 1653 1856 
Q 1859 1772 2023 1684 
Q 2188 1597 2303 1486 
Q 2419 1375 2481 1229 
Q 2544 1084 2544 884 
Q 2544 641 2431 459 
Q 2319 278 2131 159 
Q 1944 41 1698 -17 
Q 1453 -75 1181 -75 
Q 656 -75 272 100 
z
" transform="scale(0.015625)"/>
     <path id="SegoeUI-Semibold-20" transform="scale(0.015625)"/>
     <path id="SegoeUI-Semibold-6f" d="M 1891 -75 
Q 1150 -75 708 373 
Q 266 822 266 1563 
Q 266 2369 727 2822 
Q 1188 3275 1969 3275 
Q 2719 3275 3137 2834 
Q 3556 2394 3556 1613 
Q 3556 847 3104 386 
Q 2653 -75 1891 -75 
z
M 1925 2697 
Q 1500 2697 1253 2400 
Q 1006 2103 1006 1581 
Q 1006 1078 1256 789 
Q 1506 500 1925 500 
Q 2353 500 2583 784 
Q 2813 1069 2813 1594 
Q 2813 2122 2583 2409 
Q 2353 2697 1925 2697 
z
" transform="scale(0.015625)"/>
     <path id="SegoeUI-Semibold-66" d="M 2281 4147 
Q 2134 4231 1947 4231 
Q 1419 4231 1419 3634 
L 1419 3200 
L 2163 3200 
L 2163 2631 
L 1422 2631 
L 1422 0 
L 697 0 
L 697 2631 
L 150 2631 
L 150 3200 
L 697 3200 
L 697 3719 
Q 697 4225 1028 4517 
Q 1359 4809 1856 4809 
Q 2125 4809 2281 4750 
L 2281 4147 
z
" transform="scale(0.015625)"/>
     <path id="SegoeUI-Semibold-69" d="M 838 3872 
Q 659 3872 532 3987 
Q 406 4103 406 4281 
Q 406 4459 532 4578 
Q 659 4697 838 4697 
Q 1022 4697 1150 4578 
Q 1278 4459 1278 4281 
Q 1278 4113 1150 3992 
Q 1022 3872 838 3872 
z
M 1197 0 
L 472 0 
L 472 3200 
L 1197 3200 
L 1197 0 
z
" transform="scale(0.015625)"/>
     <path id="SegoeUI-Semibold-63" d="M 2763 147 
Q 2378 -75 1853 -75 
Q 1141 -75 703 370 
Q 266 816 266 1525 
Q 266 2316 736 2795 
Q 1206 3275 1994 3275 
Q 2431 3275 2766 3122 
L 2766 2447 
Q 2431 2697 2053 2697 
Q 1594 2697 1300 2386 
Q 1006 2075 1006 1572 
Q 1006 1075 1282 787 
Q 1559 500 2025 500 
Q 2416 500 2763 778 
L 2763 147 
z
" transform="scale(0.015625)"/>
     <path id="SegoeUI-Semibold-6c" d="M 1200 0 
L 472 0 
L 472 4738 
L 1200 4738 
L 1200 0 
z
" transform="scale(0.015625)"/>
     <path id="SegoeUI-Semibold-52" d="M 4016 0 
L 3147 0 
L 2431 1200 
Q 2334 1366 2242 1483 
Q 2150 1600 2054 1675 
Q 1959 1750 1846 1784 
Q 1734 1819 1594 1819 
L 1294 1819 
L 1294 0 
L 553 0 
L 553 4481 
L 2028 4481 
Q 2344 4481 2609 4406 
Q 2875 4331 3072 4179 
Q 3269 4028 3380 3801 
Q 3491 3575 3491 3272 
Q 3491 3034 3420 2836 
Q 3350 2638 3220 2483 
Q 3091 2328 2908 2218 
Q 2725 2109 2497 2050 
L 2497 2038 
Q 2619 1969 2709 1886 
Q 2800 1803 2881 1715 
Q 2963 1628 3042 1517 
Q 3122 1406 3219 1259 
L 4016 0 
z
M 1294 3878 
L 1294 2422 
L 1913 2422 
Q 2084 2422 2229 2475 
Q 2375 2528 2481 2628 
Q 2588 2728 2647 2872 
Q 2706 3016 2706 3194 
Q 2706 3516 2503 3697 
Q 2300 3878 1919 3878 
L 1294 3878 
z
" transform="scale(0.015625)"/>
     <path id="SegoeUI-Semibold-4f" d="M 2400 -75 
Q 1431 -75 848 553 
Q 266 1181 266 2188 
Q 266 3269 859 3912 
Q 1453 4556 2472 4556 
Q 3416 4556 3992 3931 
Q 4569 3306 4569 2297 
Q 4569 1200 3978 562 
Q 3388 -75 2400 -75 
z
M 2434 3903 
Q 1819 3903 1433 3443 
Q 1047 2984 1047 2234 
Q 1047 1488 1422 1031 
Q 1797 575 2403 575 
Q 3047 575 3419 1009 
Q 3791 1444 3791 2225 
Q 3791 3028 3430 3465 
Q 3069 3903 2434 3903 
z
" transform="scale(0.015625)"/>
     <path id="SegoeUI-Semibold-43" d="M 3678 188 
Q 3172 -75 2419 -75 
Q 1444 -75 856 540 
Q 269 1156 269 2156 
Q 269 3231 930 3893 
Q 1591 4556 2600 4556 
Q 3250 4556 3678 4372 
L 3678 3634 
Q 3225 3903 2678 3903 
Q 1950 3903 1498 3437 
Q 1047 2972 1047 2194 
Q 1047 1453 1469 1014 
Q 1891 575 2578 575 
Q 3213 575 3678 875 
L 3678 188 
z
" transform="scale(0.015625)"/>
     <path id="SegoeUI-Semibold-2c" d="M 1150 747 
L 666 -813 
L 122 -813 
L 466 747 
L 1150 747 
z
" transform="scale(0.015625)"/>
     <path id="SegoeUI-Semibold-46" d="M 2972 3850 
L 1297 3850 
L 1297 2503 
L 2841 2503 
L 2841 1875 
L 1297 1875 
L 1297 0 
L 553 0 
L 553 4481 
L 2972 4481 
L 2972 3850 
z
" transform="scale(0.015625)"/>
     <path id="SegoeUI-Semibold-31" d="M 1922 4581 
L 1922 0 
L 1197 0 
L 1197 3694 
Q 1000 3553 773 3454 
Q 547 3356 256 3281 
L 256 3900 
Q 438 3959 606 4025 
Q 775 4091 939 4172 
Q 1103 4253 1270 4353 
Q 1438 4453 1616 4581 
L 1922 4581 
z
" transform="scale(0.015625)"/>
     <path id="SegoeUI-Semibold-32" d="M 3119 0 
L 306 0 
L 306 347 
Q 306 559 365 745 
Q 425 931 525 1095 
Q 625 1259 759 1404 
Q 894 1550 1047 1686 
Q 1200 1822 1359 1948 
Q 1519 2075 1672 2203 
Q 1816 2325 1934 2442 
Q 2053 2559 2137 2684 
Q 2222 2809 2269 2948 
Q 2316 3088 2316 3250 
Q 2316 3428 2261 3561 
Q 2206 3694 2107 3783 
Q 2009 3872 1875 3917 
Q 1741 3963 1581 3963 
Q 1306 3963 1022 3834 
Q 738 3706 475 3450 
L 475 4147 
Q 613 4250 753 4326 
Q 894 4403 1044 4454 
Q 1194 4506 1359 4531 
Q 1525 4556 1713 4556 
Q 2016 4556 2262 4476 
Q 2509 4397 2684 4242 
Q 2859 4088 2954 3856 
Q 3050 3625 3050 3325 
Q 3050 3053 2983 2836 
Q 2916 2619 2792 2431 
Q 2669 2244 2494 2075 
Q 2319 1906 2103 1728 
Q 1922 1581 1742 1442 
Q 1563 1303 1419 1170 
Q 1275 1038 1186 905 
Q 1097 772 1097 638 
L 1097 622 
L 3119 622 
L 3119 0 
z
" transform="scale(0.015625)"/>
     <path id="SegoeUI-Semibold-64" d="M 3381 0 
L 2656 0 
L 2656 544 
L 2644 544 
Q 2294 -75 1566 -75 
Q 975 -75 620 354 
Q 266 784 266 1525 
Q 266 2319 658 2797 
Q 1050 3275 1703 3275 
Q 2350 3275 2644 2756 
L 2656 2756 
L 2656 4738 
L 3381 4738 
L 3381 0 
z
M 2666 1463 
L 2666 1881 
Q 2666 2222 2444 2459 
Q 2222 2697 1878 2697 
Q 1472 2697 1239 2394 
Q 1006 2091 1006 1553 
Q 1006 1066 1229 783 
Q 1453 500 1831 500 
Q 2203 500 2434 773 
Q 2666 1047 2666 1463 
z
" transform="scale(0.015625)"/>
     <path id="SegoeUI-Semibold-75" d="M 3263 0 
L 2538 0 
L 2538 506 
L 2525 506 
Q 2209 -75 1544 -75 
Q 409 -75 409 1288 
L 409 3200 
L 1134 3200 
L 1134 1363 
Q 1134 500 1800 500 
Q 2122 500 2330 737 
Q 2538 975 2538 1359 
L 2538 3200 
L 3263 3200 
L 3263 0 
z
" transform="scale(0.015625)"/>
     <path id="SegoeUI-Semibold-6d" d="M 5256 0 
L 4531 0 
L 4531 1744 
Q 4531 2247 4389 2472 
Q 4247 2697 3909 2697 
Q 3625 2697 3426 2412 
Q 3228 2128 3228 1731 
L 3228 0 
L 2500 0 
L 2500 1803 
Q 2500 2697 1869 2697 
Q 1575 2697 1386 2428 
Q 1197 2159 1197 1731 
L 1197 0 
L 472 0 
L 472 3200 
L 1197 3200 
L 1197 2694 
L 1209 2694 
Q 1556 3275 2219 3275 
Q 2550 3275 2798 3092 
Q 3047 2909 3138 2613 
Q 3494 3275 4200 3275 
Q 5256 3275 5256 1972 
L 5256 0 
z
" transform="scale(0.015625)"/>
     <path id="SegoeUI-Semibold-48" d="M 4153 0 
L 3406 0 
L 3406 1944 
L 1297 1944 
L 1297 0 
L 553 0 
L 553 4481 
L 1297 4481 
L 1297 2597 
L 3406 2597 
L 3406 4481 
L 4153 4481 
L 4153 0 
z
" transform="scale(0.015625)"/>
    </defs>
    <use xlink:href="#SegoeUI-Semibold-53"/>
    <use xlink:href="#SegoeUI-Semibold-79" transform="translate(52.068359 0)"/>
    <use xlink:href="#SegoeUI-Semibold-6e" transform="translate(102.898438 0)"/>
    <use xlink:href="#SegoeUI-Semibold-74" transform="translate(161.248047 0)"/>
    <use xlink:href="#SegoeUI-Semibold-68" transform="translate(197.380859 0)"/>
    <use xlink:href="#SegoeUI-Semibold-65" transform="translate(255.583984 0)"/>
    <use xlink:href="#SegoeUI-Semibold-73" transform="translate(308.708984 0)"/>
    <use xlink:href="#SegoeUI-Semibold-65" transform="translate(351.824219 0)"/>
    <use xlink:href="#SegoeUI-Semibold-20" transform="translate(404.949219 0)"/>
    <use xlink:href="#SegoeUI-Semibold-6f" transform="translate(432.439453 0)"/>
    <use xlink:href="#SegoeUI-Semibold-66" transform="translate(490.53125 0)"/>
    <use xlink:href="#SegoeUI-Semibold-66" transform="translate(525.003906 0)"/>
    <use xlink:href="#SegoeUI-Semibold-69" transform="translate(559.476562 0)"/>
    <use xlink:href="#SegoeUI-Semibold-63" transform="translate(585.599609 0)"/>
    <use xlink:href="#SegoeUI-Semibold-69" transform="translate(632.621094 0)"/>
    <use xlink:href="#SegoeUI-Semibold-65" transform="translate(658.744141 0)"/>
    <use xlink:href="#SegoeUI-Semibold-6c" transform="translate(711.869141 0)"/>
    <use xlink:href="#SegoeUI-Semibold-6c" transform="translate(737.992188 0)"/>
    <use xlink:href="#SegoeUI-Semibold-65" transform="translate(764.115234 0)"/>
    <use xlink:href="#SegoeUI-Semibold-20" transform="translate(817.240234 0)"/>
    <use xlink:href="#SegoeUI-Semibold-52" transform="translate(844.730469 0)"/>
    <use xlink:href="#SegoeUI-Semibold-4f" transform="translate(905.986328 0)"/>
    <use xlink:href="#SegoeUI-Semibold-43" transform="translate(981.572266 0)"/>
    <use xlink:href="#SegoeUI-Semibold-2c" transform="translate(1043.681641 0)"/>
    <use xlink:href="#SegoeUI-Semibold-20" transform="translate(1067.802734 0)"/>
    <use xlink:href="#SegoeUI-Semibold-46" transform="translate(1095.292969 0)"/>
    <use xlink:href="#SegoeUI-Semibold-31" transform="translate(1145.537109 0)"/>
    <use xlink:href="#SegoeUI-Semibold-20" transform="translate(1185.771484 0)"/>
    <use xlink:href="#SegoeUI-Semibold-65" transform="translate(1213.261719 0)"/>
    <use xlink:href="#SegoeUI-Semibold-74" transform="translate(1266.386719 0)"/>
    <use xlink:href="#SegoeUI-Semibold-20" transform="translate(1302.519531 0)"/>
    <use xlink:href="#SegoeUI-Semibold-52" transform="translate(1330.009766 0)"/>
    <use xlink:href="#SegoeUI-Semibold-32" transform="translate(1392.265625 0)"/>
    <use xlink:href="#SegoeUI-Semibold-20" transform="translate(1447.783203 0)"/>
    <use xlink:href="#SegoeUI-Semibold-64" transform="translate(1475.273438 0)"/>
    <use xlink:href="#SegoeUI-Semibold-75" transform="translate(1535.527344 0)"/>
    <use xlink:href="#SegoeUI-Semibold-20" transform="translate(1593.876953 0)"/>
    <use xlink:href="#SegoeUI-Semibold-6d" transform="translate(1621.367188 0)"/>
    <use xlink:href="#SegoeUI-Semibold-6f" transform="translate(1709.941406 0)"/>
    <use xlink:href="#SegoeUI-Semibold-64" transform="translate(1769.658203 0)"/>
    <use xlink:href="#SegoeUI-Semibold-65" transform="translate(1829.912109 0)"/>
    <use xlink:href="#SegoeUI-Semibold-6c" transform="translate(1883.037109 0)"/>
    <use xlink:href="#SegoeUI-Semibold-65" transform="translate(1909.160156 0)"/>
    <use xlink:href="#SegoeUI-Semibold-20" transform="translate(1962.285156 0)"/>
    <use xlink:href="#SegoeUI-Semibold-48" transform="translate(1989.775391 0)"/>
    <use xlink:href="#SegoeUI-Semibold-32" transform="translate(2063.310547 0)"/>
    <use xlink:href="#SegoeUI-Semibold-53" transform="translate(2118.828125 0)"/>
   </g>
  </g>
  <g id="text_40">
   <!-- ROC/F1 pour le Random Forest de classification ; R2 issu des metadonnees LSTM enregistrees lors de l entrainement. -->
   <g style="fill: #6f768a" transform="translate(7.2 32.945906) scale(0.095 -0.095)">
    <defs>
     <path id="SegoeUI-2f" d="M 2541 4481 
L 391 -744 
L -88 -744 
L 2056 4481 
L 2541 4481 
z
" transform="scale(0.015625)"/>
     <path id="SegoeUI-74" d="M 2003 31 
Q 1822 -69 1525 -69 
Q 684 -69 684 869 
L 684 2763 
L 134 2763 
L 134 3200 
L 684 3200 
L 684 3981 
L 1197 4147 
L 1197 3200 
L 2003 3200 
L 2003 2763 
L 1197 2763 
L 1197 959 
Q 1197 638 1306 500 
Q 1416 363 1669 363 
Q 1863 363 2003 469 
L 2003 31 
z
" transform="scale(0.015625)"/>
     <path id="SegoeUI-3b" d="M 706 2575 
Q 559 2575 457 2678 
Q 356 2781 356 2925 
Q 356 3069 457 3169 
Q 559 3269 706 3269 
Q 850 3269 953 3169 
Q 1056 3069 1056 2925 
Q 1056 2781 953 2678 
Q 850 2575 706 2575 
z
M 988 713 
L 488 -825 
L 122 -825 
L 488 713 
L 988 713 
z
" transform="scale(0.015625)"/>
    </defs>
    <use xlink:href="#SegoeUI-52"/>
    <use xlink:href="#SegoeUI-4f" transform="translate(58.814453 0)"/>
    <use xlink:href="#SegoeUI-43" transform="translate(134.205078 0)"/>
    <use xlink:href="#SegoeUI-2f" transform="translate(196.119141 0)"/>
    <use xlink:href="#SegoeUI-46" transform="translate(235.083984 0)"/>
    <use xlink:href="#SegoeUI-31" transform="translate(283.912109 0)"/>
    <use xlink:href="#SegoeUI-20" transform="translate(337.818359 0)"/>
    <use xlink:href="#SegoeUI-70" transform="translate(365.210938 0)"/>
    <use xlink:href="#SegoeUI-6f" transform="translate(424 0)"/>
    <use xlink:href="#SegoeUI-75" transform="translate(482.59375 0)"/>
    <use xlink:href="#SegoeUI-72" transform="translate(539.185547 0)"/>
    <use xlink:href="#SegoeUI-20" transform="translate(573.951172 0)"/>
    <use xlink:href="#SegoeUI-6c" transform="translate(601.34375 0)"/>
    <use xlink:href="#SegoeUI-65" transform="translate(625.5625 0)"/>
    <use xlink:href="#SegoeUI-20" transform="translate(677.857422 0)"/>
    <use xlink:href="#SegoeUI-52" transform="translate(705.25 0)"/>
    <use xlink:href="#SegoeUI-61" transform="translate(765.064453 0)"/>
    <use xlink:href="#SegoeUI-6e" transform="translate(815.943359 0)"/>
    <use xlink:href="#SegoeUI-64" transform="translate(872.535156 0)"/>
    <use xlink:href="#SegoeUI-6f" transform="translate(931.421875 0)"/>
    <use xlink:href="#SegoeUI-6d" transform="translate(990.015625 0)"/>
    <use xlink:href="#SegoeUI-20" transform="translate(1076.148438 0)"/>
    <use xlink:href="#SegoeUI-46" transform="translate(1103.541016 0)"/>
    <use xlink:href="#SegoeUI-6f" transform="translate(1152.369141 0)"/>
    <use xlink:href="#SegoeUI-72" transform="translate(1210.962891 0)"/>
    <use xlink:href="#SegoeUI-65" transform="translate(1244.353516 0)"/>
    <use xlink:href="#SegoeUI-73" transform="translate(1296.648438 0)"/>
    <use xlink:href="#SegoeUI-74" transform="translate(1339.080078 0)"/>
    <use xlink:href="#SegoeUI-20" transform="translate(1372.966797 0)"/>
    <use xlink:href="#SegoeUI-64" transform="translate(1400.359375 0)"/>
    <use xlink:href="#SegoeUI-65" transform="translate(1459.246094 0)"/>
    <use xlink:href="#SegoeUI-20" transform="translate(1511.541016 0)"/>
    <use xlink:href="#SegoeUI-63" transform="translate(1538.933594 0)"/>
    <use xlink:href="#SegoeUI-6c" transform="translate(1585.125 0)"/>
    <use xlink:href="#SegoeUI-61" transform="translate(1609.34375 0)"/>
    <use xlink:href="#SegoeUI-73" transform="translate(1660.222656 0)"/>
    <use xlink:href="#SegoeUI-73" transform="translate(1702.654297 0)"/>
    <use xlink:href="#SegoeUI-69" transform="translate(1745.085938 0)"/>
    <use xlink:href="#SegoeUI-66" transform="translate(1769.304688 0)"/>
    <use xlink:href="#SegoeUI-69" transform="translate(1800.603516 0)"/>
    <use xlink:href="#SegoeUI-63" transform="translate(1824.822266 0)"/>
    <use xlink:href="#SegoeUI-61" transform="translate(1871.013672 0)"/>
    <use xlink:href="#SegoeUI-74" transform="translate(1921.892578 0)"/>
    <use xlink:href="#SegoeUI-69" transform="translate(1955.779297 0)"/>
    <use xlink:href="#SegoeUI-6f" transform="translate(1979.998047 0)"/>
    <use xlink:href="#SegoeUI-6e" transform="translate(2038.591797 0)"/>
    <use xlink:href="#SegoeUI-20" transform="translate(2095.183594 0)"/>
    <use xlink:href="#SegoeUI-3b" transform="translate(2122.576172 0)"/>
    <use xlink:href="#SegoeUI-20" transform="translate(2144.255859 0)"/>
    <use xlink:href="#SegoeUI-52" transform="translate(2171.648438 0)"/>
    <use xlink:href="#SegoeUI-32" transform="translate(2231.462891 0)"/>
    <use xlink:href="#SegoeUI-20" transform="translate(2285.369141 0)"/>
    <use xlink:href="#SegoeUI-69" transform="translate(2312.761719 0)"/>
    <use xlink:href="#SegoeUI-73" transform="translate(2336.980469 0)"/>
    <use xlink:href="#SegoeUI-73" transform="translate(2379.412109 0)"/>
    <use xlink:href="#SegoeUI-75" transform="translate(2421.84375 0)"/>
    <use xlink:href="#SegoeUI-20" transform="translate(2478.435547 0)"/>
    <use xlink:href="#SegoeUI-64" transform="translate(2505.828125 0)"/>
    <use xlink:href="#SegoeUI-65" transform="translate(2564.714844 0)"/>
    <use xlink:href="#SegoeUI-73" transform="translate(2617.009766 0)"/>
    <use xlink:href="#SegoeUI-20" transform="translate(2659.441406 0)"/>
    <use xlink:href="#SegoeUI-6d" transform="translate(2686.833984 0)"/>
    <use xlink:href="#SegoeUI-65" transform="translate(2772.966797 0)"/>
    <use xlink:href="#SegoeUI-74" transform="translate(2825.261719 0)"/>
    <use xlink:href="#SegoeUI-61" transform="translate(2859.148438 0)"/>
    <use xlink:href="#SegoeUI-64" transform="translate(2910.027344 0)"/>
    <use xlink:href="#SegoeUI-6f" transform="translate(2968.914062 0)"/>
    <use xlink:href="#SegoeUI-6e" transform="translate(3027.507812 0)"/>
    <use xlink:href="#SegoeUI-6e" transform="translate(3084.099609 0)"/>
    <use xlink:href="#SegoeUI-65" transform="translate(3140.691406 0)"/>
    <use xlink:href="#SegoeUI-65" transform="translate(3192.986328 0)"/>
    <use xlink:href="#SegoeUI-73" transform="translate(3245.28125 0)"/>
    <use xlink:href="#SegoeUI-20" transform="translate(3287.712891 0)"/>
    <use xlink:href="#SegoeUI-4c" transform="translate(3315.105469 0)"/>
    <use xlink:href="#SegoeUI-53" transform="translate(3362.175781 0)"/>
    <use xlink:href="#SegoeUI-54" transform="translate(3415.300781 0)"/>
    <use xlink:href="#SegoeUI-4d" transform="translate(3467.693359 0)"/>
    <use xlink:href="#SegoeUI-20" transform="translate(3557.488281 0)"/>
    <use xlink:href="#SegoeUI-65" transform="translate(3584.880859 0)"/>
    <use xlink:href="#SegoeUI-6e" transform="translate(3637.175781 0)"/>
    <use xlink:href="#SegoeUI-72" transform="translate(3693.767578 0)"/>
    <use xlink:href="#SegoeUI-65" transform="translate(3727.158203 0)"/>
    <use xlink:href="#SegoeUI-67" transform="translate(3779.453125 0)"/>
    <use xlink:href="#SegoeUI-69" transform="translate(3838.339844 0)"/>
    <use xlink:href="#SegoeUI-73" transform="translate(3862.558594 0)"/>
    <use xlink:href="#SegoeUI-74" transform="translate(3904.990234 0)"/>
    <use xlink:href="#SegoeUI-72" transform="translate(3938.876953 0)"/>
    <use xlink:href="#SegoeUI-65" transform="translate(3972.267578 0)"/>
    <use xlink:href="#SegoeUI-65" transform="translate(4024.5625 0)"/>
    <use xlink:href="#SegoeUI-73" transform="translate(4076.857422 0)"/>
    <use xlink:href="#SegoeUI-20" transform="translate(4119.289062 0)"/>
    <use xlink:href="#SegoeUI-6c" transform="translate(4146.681641 0)"/>
    <use xlink:href="#SegoeUI-6f" transform="translate(4170.900391 0)"/>
    <use xlink:href="#SegoeUI-72" transform="translate(4229.494141 0)"/>
    <use xlink:href="#SegoeUI-73" transform="translate(4264.884766 0)"/>
    <use xlink:href="#SegoeUI-20" transform="translate(4307.316406 0)"/>
    <use xlink:href="#SegoeUI-64" transform="translate(4334.708984 0)"/>
    <use xlink:href="#SegoeUI-65" transform="translate(4393.595703 0)"/>
    <use xlink:href="#SegoeUI-20" transform="translate(4445.890625 0)"/>
    <use xlink:href="#SegoeUI-6c" transform="translate(4473.283203 0)"/>
    <use xlink:href="#SegoeUI-20" transform="translate(4497.501953 0)"/>
    <use xlink:href="#SegoeUI-65" transform="translate(4524.894531 0)"/>
    <use xlink:href="#SegoeUI-6e" transform="translate(4577.189453 0)"/>
    <use xlink:href="#SegoeUI-74" transform="translate(4633.78125 0)"/>
    <use xlink:href="#SegoeUI-72" transform="translate(4667.667969 0)"/>
    <use xlink:href="#SegoeUI-61" transform="translate(4702.433594 0)"/>
    <use xlink:href="#SegoeUI-69" transform="translate(4753.3125 0)"/>
    <use xlink:href="#SegoeUI-6e" transform="translate(4777.53125 0)"/>
    <use xlink:href="#SegoeUI-65" transform="translate(4834.123047 0)"/>
    <use xlink:href="#SegoeUI-6d" transform="translate(4886.417969 0)"/>
    <use xlink:href="#SegoeUI-65" transform="translate(4972.550781 0)"/>
    <use xlink:href="#SegoeUI-6e" transform="translate(5024.845703 0)"/>
    <use xlink:href="#SegoeUI-74" transform="translate(5081.4375 0)"/>
    <use xlink:href="#SegoeUI-2e" transform="translate(5115.324219 0)"/>
   </g>
  </g>
 </g>
 <defs>
  <clipPath id="p00989e12dc">
   <rect x="83.808" y="73.188" width="229.232432" height="223.344"/>
  </clipPath>
  <clipPath id="p0a97bb141b">
   <rect x="393.271784" y="73.188" width="229.232432" height="223.344"/>
  </clipPath>
  <clipPath id="p0e53024c05">
   <rect x="702.735568" y="73.188" width="229.232432" height="223.344"/>
  </clipPath>
 </defs>
</svg>
